<svg width="132" height="44" viewBox="0 0 132 44" fill="none" xmlns="http://www.w3.org/2000/svg">
<path d="M11.6337 0.976501V1.16207L10.8629 1.34764V9.56977L11.6337 9.75534V9.94091H7.97946V9.75534L8.7503 9.56977V2.56098L5.7241 10.0694H5.33866L1.41317 2.56098V9.36993L2.44093 9.75534V9.94091H0V9.75534L1.02777 9.36993V1.34764L0.256931 1.16207V0.976501H1.85567C2.09834 0.976501 2.31246 1.00505 2.48376 1.06215C2.65505 1.11925 2.82637 1.19062 2.95484 1.29054C3.09758 1.39046 3.21178 1.50466 3.3117 1.63313C3.41162 1.7616 3.49728 1.91862 3.58292 2.07564L6.38072 7.42859L8.5219 2.07564C8.59327 1.89007 8.66466 1.73305 8.76459 1.60458C8.85023 1.47611 8.9644 1.36191 9.09287 1.26199C9.22134 1.16207 9.37839 1.0907 9.56396 1.04787C9.74953 1.00505 9.9779 0.976501 10.2634 0.976501H11.6337Z" fill="#292F36"/>
<path d="M16.202 3.36041C16.7302 3.36041 17.2155 3.43179 17.6295 3.5888C18.0434 3.74582 18.4003 3.97422 18.7001 4.25971C18.9998 4.55947 19.214 4.91634 19.371 5.3303C19.528 5.74426 19.5994 6.22959 19.5994 6.75775C19.5994 7.28591 19.528 7.77124 19.371 8.1852C19.214 8.59917 18.9856 8.95603 18.7001 9.25579C18.4003 9.55556 18.0434 9.76968 17.6295 9.9267C17.2155 10.0837 16.7302 10.1551 16.202 10.1551C15.6739 10.1551 15.1885 10.0837 14.7746 9.9267C14.3606 9.76968 14.0038 9.54129 13.704 9.25579C13.4042 8.95603 13.1901 8.59917 13.0331 8.1852C12.8761 7.77124 12.8047 7.28591 12.8047 6.75775C12.8047 6.22959 12.8761 5.74426 13.0331 5.3303C13.1901 4.91634 13.4185 4.55947 13.704 4.25971C14.0038 3.95994 14.3606 3.74582 14.7746 3.5888C15.1885 3.43179 15.6596 3.36041 16.202 3.36041ZM16.202 9.91242C16.3448 9.91242 16.4875 9.8696 16.6445 9.76968C16.7873 9.66976 16.9157 9.51274 17.0299 9.27007C17.1441 9.0274 17.2441 8.71336 17.3154 8.31368C17.3868 7.89971 17.4296 7.38583 17.4296 6.77203C17.4296 6.14395 17.3868 5.63006 17.3154 5.23038C17.2441 4.83069 17.1441 4.50237 17.0299 4.27398C16.9157 4.04559 16.7873 3.8743 16.6445 3.77438C16.5018 3.67445 16.3591 3.63163 16.202 3.63163C16.0593 3.63163 15.9165 3.67445 15.7595 3.77438C15.6168 3.8743 15.4883 4.03131 15.3741 4.27398C15.2599 4.51665 15.16 4.83069 15.0886 5.23038C15.0172 5.64434 14.9744 6.15822 14.9744 6.77203C14.9744 7.4001 15.0172 7.91399 15.0886 8.31368C15.16 8.71336 15.2599 9.04168 15.3741 9.27007C15.4883 9.49846 15.6168 9.66976 15.7595 9.76968C15.9023 9.85533 16.045 9.91242 16.202 9.91242Z" fill="#292F36"/>
<path d="M25.836 0.976501C26.6068 0.976501 26.9922 1.36191 26.9922 2.13274V9.58405L27.763 9.76962V9.95518H26.6068C26.2928 9.95518 26.0501 9.91236 25.8645 9.81244C25.6789 9.71252 25.5219 9.59832 25.422 9.48413C25.2935 9.34138 25.1936 9.17009 25.1365 8.99879C25.0223 9.22718 24.8796 9.41275 24.7083 9.58405C24.5655 9.72679 24.3657 9.85526 24.123 9.98373C23.8803 10.1122 23.5948 10.1693 23.2665 10.1693C22.8954 10.1693 22.5528 10.0979 22.2387 9.95518C21.9104 9.81244 21.6392 9.59832 21.4108 9.31283C21.1825 9.02734 20.9826 8.67048 20.8542 8.25652C20.7114 7.82828 20.6543 7.34294 20.6543 6.77196C20.6543 6.20098 20.7257 5.71565 20.8542 5.28741C20.9969 4.85918 21.1824 4.51659 21.4394 4.2311C21.682 3.94561 21.9818 3.73149 22.3244 3.58874C22.667 3.446 23.0524 3.37462 23.4807 3.37462C23.7091 3.37462 23.9089 3.40317 24.0945 3.446C24.28 3.50309 24.437 3.56019 24.5655 3.63157C24.7225 3.70294 24.851 3.78859 24.9652 3.88851V1.39046L24.1944 1.20489V1.01933H25.836V0.976501ZM24.9367 4.25964C24.8367 4.15972 24.7511 4.07408 24.6369 4.0027C24.537 3.93133 24.4371 3.87423 24.3229 3.81713C24.2087 3.76004 24.0945 3.74576 23.966 3.74576C23.809 3.74576 23.6519 3.78859 23.5092 3.87423C23.3665 3.95988 23.2522 4.10262 23.1381 4.31674C23.0381 4.53086 22.9525 4.8449 22.8954 5.23031C22.8383 5.63 22.8098 6.12961 22.8098 6.75769C22.8098 7.37149 22.8383 7.85683 22.8954 8.24224C22.9525 8.62765 23.0239 8.92742 23.1238 9.14153C23.2095 9.35565 23.3094 9.51267 23.4378 9.58405C23.552 9.65542 23.6662 9.69824 23.7804 9.69824C23.9803 9.69824 24.1515 9.64114 24.2943 9.54122C24.437 9.4413 24.5512 9.31283 24.6511 9.18436C24.7653 9.02734 24.8653 8.85604 24.9509 8.67048V4.25964H24.9367Z" fill="#292F36"/>
<path d="M32.0605 10.1694C30.9614 10.1694 30.1049 9.86961 29.5054 9.27008C28.8916 8.67055 28.5918 7.82835 28.5918 6.77203C28.5918 6.24388 28.6632 5.75854 28.8202 5.34458C28.9772 4.93062 29.1913 4.57375 29.4626 4.27399C29.7338 3.97422 30.0621 3.76011 30.4618 3.60309C30.8472 3.44607 31.2754 3.37469 31.7465 3.37469C32.2318 3.37469 32.6601 3.44607 33.0312 3.57454C33.4166 3.71728 33.7306 3.90285 34.0019 4.13125C34.2731 4.35964 34.4729 4.63085 34.6157 4.94489C34.7584 5.25893 34.8298 5.58725 34.8298 5.94411C34.8298 6.05831 34.8298 6.1725 34.8155 6.25815C34.8012 6.3438 34.787 6.42945 34.7727 6.50082C34.7441 6.58647 34.7298 6.65784 34.7013 6.71494C34.3302 6.78631 33.9305 6.85768 33.5022 6.9005C33.1454 6.9576 32.7314 7.00043 32.2604 7.02898C31.7893 7.05752 31.304 7.08607 30.7901 7.08607C30.7901 7.61423 30.8329 8.05674 30.9043 8.41361C30.9756 8.77047 31.0898 9.05596 31.2183 9.2558C31.3611 9.46992 31.5181 9.61267 31.7036 9.69831C31.8892 9.78396 32.1034 9.82679 32.3175 9.82679C32.5744 9.82679 32.8171 9.78396 33.0454 9.68404C33.2738 9.58412 33.4737 9.46992 33.6307 9.3129C33.802 9.15588 33.9305 8.97031 34.0304 8.77047C34.1303 8.57063 34.1731 8.37078 34.1731 8.15666H34.4872C34.4872 8.41361 34.4301 8.65627 34.3159 8.89894C34.2017 9.14161 34.0304 9.35572 33.8163 9.54129C33.6022 9.72686 33.3452 9.86961 33.0454 9.9838C32.76 10.1123 32.4316 10.1694 32.0605 10.1694ZM30.7758 6.75776C31.0613 6.75776 31.3182 6.75776 31.5466 6.74349C31.775 6.72921 31.9606 6.71494 32.1176 6.70066C32.3032 6.68639 32.4459 6.65784 32.5744 6.64356C32.5887 6.55791 32.6172 6.45799 32.6315 6.35807C32.6458 6.25815 32.6601 6.15823 32.6743 6.04403C32.6886 5.92984 32.6886 5.80137 32.6886 5.6729C32.6886 5.28748 32.66 4.95917 32.6029 4.70223C32.5458 4.44529 32.4745 4.23117 32.3745 4.05987C32.2889 3.90285 32.189 3.77438 32.0605 3.71728C31.932 3.66019 31.8321 3.61736 31.7179 3.61736C31.6037 3.61736 31.4895 3.66019 31.3753 3.74583C31.2612 3.83148 31.1612 3.9885 31.0613 4.20262C30.9757 4.43101 30.89 4.74505 30.8329 5.15901C30.7758 5.57297 30.7758 6.10113 30.7758 6.75776Z" fill="#292F36"/>
<path d="M40.2265 3.80287C39.9695 3.80287 39.7412 3.85997 39.5413 3.95989C39.3415 4.05981 39.1702 4.18828 39.0274 4.31675C38.8704 4.47377 38.7419 4.64507 38.6134 4.83064V9.58406L39.3843 9.76963V9.9552H35.7871V9.76963L36.5579 9.58406V3.93134L35.7871 3.74577V3.5602H36.9433C37.2431 3.5602 37.4858 3.6173 37.6856 3.71722C37.8712 3.81714 38.0282 3.93134 38.1424 4.04554C38.2709 4.18828 38.3708 4.3453 38.4279 4.5166C38.5564 4.33103 38.7134 4.15973 38.8989 4.00271C39.056 3.87424 39.2558 3.76005 39.4985 3.64585C39.7412 3.53166 40.0124 3.48883 40.3407 3.48883C40.7975 3.48883 41.1401 3.60303 41.3685 3.80287C41.5969 4.01699 41.6967 4.31675 41.6967 4.70217C41.6967 4.98766 41.6111 5.23032 41.4398 5.40162C41.2685 5.57291 41.0259 5.65856 40.7404 5.65856C40.669 5.65856 40.6119 5.65856 40.5405 5.65856C40.4691 5.65856 40.4263 5.64429 40.3835 5.64429C40.3264 5.63001 40.2693 5.63001 40.2265 5.60146V3.80287Z" fill="#292F36"/>
<path d="M47.2208 5.47304C47.2208 5.18755 47.1923 4.93061 47.1352 4.71649C47.0781 4.50237 47.0067 4.33107 46.9068 4.2026C46.8212 4.05986 46.7212 3.95993 46.5928 3.90284C46.4786 3.84574 46.3643 3.80292 46.2501 3.80292C46.0503 3.80292 45.879 3.86001 45.7363 3.95994C45.5935 4.05986 45.4651 4.18833 45.3794 4.3168C45.2652 4.47382 45.1796 4.64511 45.0939 4.83068V9.5841L45.8647 9.76967V9.95524H42.2676V9.76967L43.0384 9.5841V3.93139L42.2676 3.74582V3.56025H43.4238C43.7236 3.56025 43.9662 3.61735 44.1661 3.71727C44.3516 3.81719 44.5087 3.93139 44.6229 4.04558C44.7513 4.18833 44.8512 4.34535 44.9083 4.51664C45.0225 4.30252 45.1653 4.10268 45.3366 3.93139C45.4793 3.78864 45.6792 3.66017 45.9076 3.5317C46.136 3.40323 46.4357 3.34613 46.7783 3.34613C47.1494 3.34613 47.4921 3.40323 47.7918 3.5317C48.1059 3.6459 48.3628 3.81719 48.5769 4.00276C48.791 4.2026 48.9623 4.41672 49.0908 4.67366C49.2193 4.9306 49.2763 5.18754 49.2763 5.45876V9.56983L50.0472 9.7554V9.94097H48.3771C47.6063 9.94097 47.2208 9.55555 47.2208 8.78473V5.47304Z" fill="#292F36"/>
<path d="M1.35547 18.9767V18.4485H11.2762V18.9767L9.19217 19.5049V30.2821H16.672V19.5049L14.5879 18.9767V18.4485H24.5088V18.9767L22.4247 19.5049V41.7731L24.5088 42.3013V42.8295H14.5879V42.287L16.672 41.7589V31.1529H9.19217V41.7589L11.2762 42.287V42.8152H1.35547V42.287L3.43954 41.7589V19.4906L1.35547 18.9767Z" fill="#292F36"/>
<path d="M36.8424 24.8864C38.2842 24.8864 39.5689 25.1005 40.7108 25.5144C41.8528 25.9284 42.8092 26.5422 43.6085 27.3416C44.4079 28.1409 45.0217 29.1116 45.4357 30.2536C45.8496 31.3955 46.0638 32.6803 46.0638 34.122C46.0638 35.5637 45.8496 36.8484 45.4357 37.9904C45.0217 39.1323 44.4079 40.0887 43.6085 40.8881C42.8092 41.6875 41.8385 42.3013 40.7108 42.7153C39.5689 43.1292 38.2842 43.3433 36.8424 43.3433C35.4007 43.3433 34.116 43.1292 32.974 42.7153C31.8321 42.3013 30.8757 41.6875 30.0763 40.8881C29.2769 40.0887 28.6631 39.1181 28.2492 37.9904C27.8352 36.8484 27.6211 35.5637 27.6211 34.122C27.6211 32.6803 27.8352 31.3955 28.2492 30.2536C28.6631 29.1116 29.2769 28.1552 30.0763 27.3416C30.8757 26.5279 31.8464 25.9284 32.974 25.5144C34.116 25.1005 35.4007 24.8864 36.8424 24.8864ZM36.8424 42.6296C37.2421 42.6296 37.6276 42.5011 38.0272 42.2442C38.4269 41.9872 38.7695 41.5447 39.0835 40.9024C39.3976 40.26 39.6545 39.3893 39.8544 38.2901C40.0542 37.191 40.1541 35.7921 40.1541 34.0934C40.1541 32.3948 40.0542 30.9959 39.8544 29.8967C39.6545 28.7976 39.3976 27.9268 39.0835 27.2845C38.7695 26.6421 38.4127 26.1996 38.0272 25.9427C37.6418 25.6857 37.2421 25.5573 36.8424 25.5573C36.4427 25.5573 36.0574 25.6857 35.6577 25.9427C35.258 26.1996 34.9154 26.6421 34.6013 27.2845C34.2873 27.9268 34.0304 28.7976 33.8305 29.8967C33.6307 30.9959 33.5307 32.3948 33.5307 34.0934C33.5307 35.7921 33.6307 37.191 33.8305 38.2901C34.0304 39.3893 34.2873 40.26 34.6013 40.9024C34.9154 41.5447 35.2723 41.9872 35.6577 42.2442C36.0574 42.5011 36.4427 42.6296 36.8424 42.6296Z" fill="#292F36"/>
<path d="M72.1443 30.6247C72.1443 29.7968 72.073 29.0831 71.9302 28.5263C71.7875 27.9696 71.6162 27.4986 71.3878 27.1417C71.1594 26.7849 70.9167 26.5279 70.6598 26.3566C70.3885 26.1996 70.1316 26.1139 69.8747 26.1139C69.4322 26.1139 69.0467 26.2567 68.7042 26.5422C68.3616 26.8277 68.0761 27.156 67.8191 27.4986C67.5479 27.9125 67.291 28.3836 67.0911 28.8832V41.7588L69.1895 42.287V42.8152H59.4542V42.287L61.5384 41.7588V30.6247C61.5384 29.7968 61.4669 29.0831 61.3242 28.5263C61.1815 27.9696 61.0102 27.4986 60.7818 27.1417C60.5534 26.7849 60.3107 26.5279 60.0538 26.3566C59.7826 26.1996 59.5256 26.1139 59.2687 26.1139C58.8262 26.1139 58.4408 26.2567 58.0982 26.5422C57.7556 26.8277 57.4701 27.156 57.2131 27.4986C56.9276 27.9125 56.685 28.3836 56.4852 28.8832V41.7588L58.5692 42.287V42.8152H48.834V42.287L50.9181 41.7588V26.4565L48.834 25.9284V25.4002H51.9601C52.7738 25.4002 53.4447 25.543 53.9585 25.8142C54.4867 26.0854 54.8864 26.3994 55.2005 26.7135C55.543 27.1132 55.8 27.5414 55.9713 27.9982C56.271 27.4129 56.6422 26.899 57.0847 26.428C57.4844 26.0283 57.9697 25.6714 58.5407 25.3431C59.126 25.0148 59.8254 24.8578 60.6676 24.8578C62.0522 24.8578 63.2655 25.1718 64.2648 25.7856C65.2782 26.3994 66.0491 27.1988 66.5773 28.1695C66.877 27.5699 67.2482 27.0275 67.6907 26.5279C68.0904 26.114 68.5757 25.7285 69.1467 25.3859C69.7319 25.0434 70.4314 24.8578 71.2736 24.8578C72.2299 24.8578 73.0864 25.0148 73.8858 25.3146C74.6709 25.6143 75.3561 26.0283 75.9271 26.5565C76.498 27.0846 76.9405 27.6841 77.2546 28.3836C77.5686 29.0831 77.7257 29.8253 77.7257 30.6104V41.7446L79.8097 42.2727V42.8009H75.2847C73.2006 42.8009 72.1586 41.7588 72.1586 39.6748V30.6247H72.1443Z" fill="#292F36"/>
<path d="M91.2852 43.329C88.3161 43.329 86.0037 42.5154 84.3621 40.8738C82.7205 39.2323 81.8926 36.9911 81.8926 34.1077C81.8926 32.666 82.1067 31.3813 82.5207 30.2393C82.9346 29.0973 83.5199 28.1409 84.2622 27.3273C85.0044 26.5279 85.9037 25.9141 86.9601 25.5001C88.0164 25.0862 89.1726 24.8721 90.4145 24.8721C91.7135 24.8721 92.884 25.0576 93.9118 25.4288C94.9395 25.7999 95.8245 26.2995 96.5383 26.9276C97.252 27.5557 97.8087 28.298 98.1941 29.1402C98.5795 29.9824 98.7651 30.8816 98.7651 31.838C98.7651 32.1664 98.7508 32.4518 98.708 32.6945C98.6652 32.9372 98.6366 33.1513 98.5795 33.3369C98.5081 33.5653 98.451 33.7651 98.4082 33.9221C97.3805 34.1362 96.3099 34.3075 95.1679 34.4503C94.1973 34.593 93.0695 34.7072 91.7991 34.8214C90.5287 34.9213 89.1869 34.9784 87.8023 34.9784C87.8023 36.4202 87.9022 37.6192 88.1163 38.5756C88.3304 39.532 88.6159 40.3028 88.987 40.8738C89.3582 41.4448 89.8007 41.8445 90.3145 42.0872C90.8284 42.3298 91.3852 42.4583 91.9847 42.4583C92.6841 42.4583 93.3408 42.3298 93.9546 42.0729C94.5684 41.8159 95.0965 41.4734 95.5533 41.0451C96.0101 40.6169 96.367 40.1315 96.6382 39.5891C96.9094 39.0467 97.0379 38.49 97.0379 37.9333H97.9086C97.9086 38.6327 97.7516 39.3036 97.4376 39.946C97.1235 40.6026 96.681 41.1736 96.0958 41.6732C95.5105 42.1728 94.8253 42.5725 94.0117 42.8723C93.1838 43.172 92.2702 43.329 91.2852 43.329ZM87.8023 34.1077C88.5874 34.1077 89.2868 34.0934 89.8863 34.0506C90.4859 34.0078 90.9998 33.9792 91.4137 33.9364C91.899 33.8936 92.313 33.8365 92.6699 33.7651C92.7127 33.5367 92.7698 33.2798 92.8412 32.9943C92.884 32.7373 92.9268 32.4518 92.9553 32.1378C92.9839 31.8238 93.0125 31.4955 93.0125 31.1529C93.0125 30.1108 92.9268 29.2401 92.7698 28.5263C92.6127 27.8126 92.3986 27.2416 92.156 26.7991C91.9133 26.3566 91.6278 26.0426 91.3281 25.857C91.014 25.6714 90.7 25.5715 90.4002 25.5715C90.1004 25.5715 89.7864 25.6857 89.4724 25.8998C89.1583 26.1282 88.8871 26.5422 88.6444 27.156C88.4018 27.7698 88.2019 28.6405 88.0307 29.754C87.8879 30.8674 87.8023 32.3234 87.8023 34.1077Z" fill="#292F36"/>
<path d="M115.853 42.4583V28.3408L103.377 18.4628V42.4583H115.853Z" fill="#292F36"/>
<path d="M131.282 42.4583V28.3408L119.006 18.4628V42.4583H131.282Z" fill="#292F36"/>
</svg>
