<svg width="103" height="103" viewBox="0 0 103 103" fill="none" xmlns="http://www.w3.org/2000/svg">
<path d="M51.4423 101.606C79.303 101.606 101.889 79.0206 101.889 51.16C101.889 23.2993 79.303 0.713745 51.4423 0.713745C23.5816 0.713745 0.996094 23.2993 0.996094 51.16C0.996094 79.0206 23.5816 101.606 51.4423 101.606Z" fill="white"/>
<path d="M51.4431 102.32C23.2367 102.32 0.283203 79.3664 0.283203 51.1599C0.283203 22.9535 23.2367 0 51.4431 0C79.6496 0 102.603 22.9535 102.603 51.1599C102.603 79.3664 79.6496 102.32 51.4431 102.32ZM51.4431 1.42745C24.0218 1.42745 1.71066 23.7386 1.71066 51.1599C1.71066 78.5813 24.0218 100.892 51.4431 100.892C78.8645 100.892 101.176 78.5813 101.176 51.1599C101.176 23.7386 78.8645 1.42745 51.4431 1.42745Z" fill="#292F36"/>
<path d="M58.6371 5.83827C58.9796 5.86682 59.2794 5.88109 59.5221 5.88109L59.4935 6.10949C59.0938 6.16658 58.7513 6.46635 58.48 7.03733L55.0827 13.832L54.9828 13.8177L54.8971 13.8035L52.7417 6.22368C52.5989 5.72407 52.3563 5.45286 52.0137 5.41003L52.0422 5.18164C52.3563 5.23874 52.7702 5.28156 53.2841 5.33866C53.955 5.39576 54.4546 5.43858 54.7829 5.43858L54.7544 5.66697C54.4546 5.6527 54.2405 5.66697 54.112 5.7098C53.9836 5.75262 53.9122 5.86682 53.8979 6.00956C53.8836 6.13803 53.9122 6.3236 53.9836 6.56627L55.568 12.3617L57.9233 7.62259C58.1232 7.23717 58.2231 6.92313 58.2516 6.69474C58.2802 6.45207 58.2088 6.26651 58.0518 6.13803C57.8948 6.00956 57.6378 5.93819 57.2952 5.89537L57.3238 5.66697C57.7378 5.73835 58.1803 5.79545 58.6371 5.83827Z" fill="#292F36"/>
<path d="M68.2291 8.85028C68.0864 8.85028 67.9722 8.90737 67.8865 9.02157C67.8009 9.13577 67.701 9.32134 67.601 9.59255L65.5598 15.0169C65.4599 15.2881 65.4028 15.5022 65.4028 15.645C65.4028 15.7877 65.4456 15.9019 65.5455 15.9875C65.6454 16.0732 65.831 16.1731 66.0879 16.2873L66.0023 16.5014C65.674 16.3587 65.2172 16.1731 64.6319 15.9447C64.0039 15.7021 63.5328 15.545 63.2188 15.4451L63.3044 15.231C63.5756 15.3166 63.7755 15.3595 63.9039 15.3595C64.0324 15.3595 64.1609 15.3024 64.2465 15.1882C64.3322 15.074 64.4321 14.8884 64.532 14.6172L66.5733 9.19286C66.6732 8.92165 66.7303 8.70753 66.7303 8.56479C66.7303 8.42204 66.6875 8.30784 66.5875 8.2222C66.4876 8.13655 66.302 8.03663 66.0451 7.92243L66.1308 7.70831C66.4305 7.83678 66.8873 8.02235 67.5154 8.26502C68.1006 8.49341 68.5717 8.65043 68.9143 8.75035L68.8286 8.96447C68.5717 8.87883 68.3719 8.836 68.2291 8.85028Z" fill="#292F36"/>
<path d="M80.9337 16.4014C80.791 16.3729 80.6483 16.4157 80.5198 16.5014C80.3913 16.587 80.2343 16.7583 80.063 17.001L75.9234 22.6109L75.7093 22.4538L76.266 13.4323L72.5974 18.3999C72.4261 18.6425 72.3119 18.8424 72.2548 18.9994C72.1977 19.1564 72.2263 19.2992 72.2977 19.4419C72.369 19.5847 72.5403 19.7417 72.783 19.9415L72.6402 20.1271C72.4261 19.9415 72.1121 19.6989 71.6981 19.3848C71.327 19.1136 71.0272 18.8995 70.7988 18.771L70.9416 18.5854C71.17 18.7425 71.3555 18.8281 71.4983 18.8424C71.641 18.8709 71.7838 18.8281 71.9122 18.7425C72.0407 18.6425 72.1977 18.4855 72.369 18.2429L75.7378 13.675C75.9091 13.4323 76.0233 13.2468 76.0661 13.1183C76.109 12.9898 76.0947 12.8614 76.0233 12.7472C75.9519 12.633 75.8092 12.4902 75.5808 12.3046L75.7235 12.1191C75.9091 12.2904 76.1946 12.5188 76.58 12.79C76.8655 13.0041 77.1082 13.1754 77.3366 13.3039L76.8798 20.8694L79.8489 16.844C80.0202 16.6013 80.1486 16.4014 80.1915 16.2444C80.2343 16.0874 80.22 15.9447 80.1486 15.8019C80.0773 15.6592 79.906 15.4879 79.6633 15.3023L79.8061 15.1167C80.0202 15.3023 80.3342 15.545 80.7482 15.859C81.1193 16.1302 81.4191 16.3443 81.6475 16.4728L81.5047 16.6584C81.2621 16.5156 81.0765 16.4157 80.9337 16.4014Z" fill="#292F36"/>
<path d="M85.716 22.8392C86.0871 22.568 86.4725 22.2682 86.8865 21.8971C87.2434 22.4395 87.8715 23.3388 88.7708 24.6093C89.67 25.8654 90.3124 26.7504 90.6978 27.2643C90.2125 27.5498 89.7985 27.8068 89.4274 28.0637C89.1133 28.2921 88.8564 28.4919 88.6708 28.6489L88.5138 28.4348C88.9706 28.0351 89.2846 27.7068 89.4702 27.4642C89.6558 27.2215 89.7271 26.9646 89.7129 26.6933C89.6986 26.4221 89.5273 26.0938 89.2561 25.6941L88.8849 25.1802L83.4749 29.0344C83.218 29.2199 83.0324 29.3912 82.9467 29.5197C82.8611 29.6482 82.8325 29.8052 82.8896 29.9765C82.9325 30.1335 83.0609 30.3619 83.2465 30.6474L83.0609 30.7901C82.8468 30.4475 82.5185 29.9622 82.0903 29.377C81.6335 28.7346 81.2909 28.2778 81.0625 27.9923L81.2481 27.8496C81.4622 28.1208 81.6335 28.3064 81.7762 28.4063C81.919 28.5062 82.0617 28.5348 82.2187 28.4919C82.3758 28.4491 82.5899 28.3349 82.8468 28.1493L88.2569 24.2952L87.8857 23.7813C87.6002 23.3816 87.3433 23.139 87.1006 23.0248C86.858 22.9106 86.5867 22.8963 86.3013 22.9962C86.0158 23.0962 85.6018 23.2817 85.0736 23.5815L84.9166 23.3674C85.1307 23.2532 85.3877 23.0819 85.716 22.8392Z" fill="#292F36"/>
<path d="M88.4558 42.6524L88.2275 42.7237C88.1418 42.4097 88.0276 42.01 87.8563 41.5247C87.6422 40.8966 87.4709 40.4255 87.3424 40.1115L87.5708 40.0401C87.6707 40.3113 87.7849 40.5112 87.8706 40.6111C87.9705 40.711 88.099 40.7396 88.2417 40.6825C88.3702 40.6396 88.5272 40.5397 88.7128 40.3827L90.2973 39.0837L89.398 36.4144L88.0704 36.3573C87.6422 36.3287 87.3139 36.3573 87.0855 36.4429C86.8571 36.5286 86.7143 36.657 86.6573 36.8426C86.6144 37.0282 86.643 37.2994 86.7429 37.6277L86.5145 37.6991C86.4003 37.2709 86.2576 36.8426 86.1148 36.4144C86.0006 36.0861 85.9007 35.8149 85.8008 35.6007L86.0292 35.5294C86.229 35.8719 86.6573 36.0575 87.2853 36.0718L94.8794 36.4144L94.9365 36.5857L88.8841 41.6246C88.5129 41.9814 88.3702 42.3098 88.4558 42.6524ZM93.4091 36.5857L89.6692 36.4287L90.5114 38.941L93.4091 36.5857Z" fill="#292F36"/>
<path d="M89.4974 53.5724C89.6401 53.5153 89.7115 53.4439 89.7115 53.344C89.7115 53.2869 89.6972 53.2441 89.6687 53.2013C89.6401 53.1584 89.583 53.0728 89.4974 52.9586C89.2832 52.6874 89.1262 52.4019 89.012 52.1164C88.8978 51.8309 88.8407 51.5026 88.8407 51.1457C88.8265 50.3464 88.9835 49.6612 89.2975 49.0759C89.6258 48.4907 90.0826 48.0481 90.7107 47.7341C91.3245 47.4201 92.0668 47.263 92.9375 47.2488C93.8368 47.2345 94.6219 47.3772 95.2928 47.6913C95.9637 48.0053 96.4919 48.4336 96.863 49.0045C97.2342 49.5755 97.434 50.2179 97.434 50.9316C97.434 51.2456 97.4055 51.5311 97.3484 51.7738C97.2913 52.0165 97.2056 52.2306 97.1057 52.4162C97.0058 52.6017 96.8773 52.8158 96.706 53.0442C96.6346 53.1442 96.5918 53.2298 96.5918 53.2869C96.5918 53.4297 96.8345 53.5296 97.3055 53.5724V53.8436C96.8059 53.8151 95.9066 53.8151 94.6219 53.8436V53.5724C95.0359 53.501 95.3785 53.4154 95.6497 53.3297C95.9209 53.2441 96.1493 53.1156 96.3491 52.9586C96.6204 52.7302 96.8488 52.4304 97.0058 52.0593C97.1628 51.6882 97.2342 51.317 97.2342 50.9173C97.2199 50.4034 97.0486 49.9609 96.706 49.5755C96.3634 49.1901 95.8781 48.9046 95.2643 48.6905C94.6362 48.4907 93.9225 48.3907 93.0945 48.405C92.1524 48.4193 91.3959 48.5335 90.7963 48.7476C90.1968 48.9617 89.7686 49.2758 89.4831 49.6897C89.1976 50.1037 89.0691 50.6318 89.0834 51.2742C89.0977 51.7453 89.2261 52.1449 89.4688 52.4875C89.5687 52.6303 89.6544 52.7159 89.7543 52.7587C89.84 52.8016 89.9684 52.8158 90.1254 52.8158L91.2531 52.8016C91.5814 52.8016 91.8098 52.7587 91.9669 52.7016C92.1096 52.6445 92.2238 52.5304 92.2666 52.3591C92.3237 52.202 92.3523 51.9451 92.3523 51.6025H92.5807C92.5664 51.9879 92.5521 52.5304 92.5664 53.2584C92.5807 53.8008 92.5949 54.2147 92.6235 54.4717H92.3951C92.3808 54.2861 92.338 54.1577 92.2952 54.0863C92.2523 54.0149 92.1524 53.9578 92.024 53.9293C91.8955 53.9007 91.6814 53.8864 91.3816 53.9007L89.0691 53.9435V53.7151C89.1976 53.658 89.3546 53.6295 89.4974 53.5724Z" fill="#292F36"/>
<path d="M87.7998 65.72C87.3858 65.5915 86.9005 65.463 86.3438 65.3488C86.5293 64.8492 86.8005 64.007 87.1859 62.8079C87.6427 61.3805 87.971 60.2956 88.1709 59.5676L88.3993 59.639C88.3279 59.9102 88.2994 60.1101 88.2994 60.2528C88.3136 60.3955 88.3707 60.4955 88.4849 60.5811C88.5991 60.6668 88.799 60.7524 89.0702 60.8381L94.5944 62.5796C94.8799 62.6652 95.0798 62.708 95.2225 62.708C95.3653 62.708 95.4795 62.6509 95.5651 62.5367C95.6507 62.4225 95.7364 62.237 95.8363 61.98L96.0647 62.0514C95.8078 62.7794 95.4652 63.85 95.0084 65.2774C94.6658 66.3623 94.4231 67.1474 94.3089 67.6185C93.8379 67.4186 93.4096 67.2473 93.01 67.1331C92.7245 67.0475 92.4818 66.9761 92.3105 66.9476L92.3961 66.6906C92.8958 66.7905 93.2812 66.8334 93.5381 66.8334C93.7951 66.8334 94.0092 66.7477 94.1805 66.5764C94.3518 66.4194 94.4945 66.1339 94.623 65.7485L94.9085 64.8207C94.9941 64.5494 95.0369 64.3496 95.0227 64.2211C95.0084 64.0927 94.9656 63.9785 94.8514 63.8928C94.7372 63.8072 94.5516 63.7215 94.2661 63.6359L91.6396 62.8079L91.4112 63.5502C91.297 63.9214 91.3256 64.2069 91.5111 64.4067C91.6967 64.6065 91.8965 64.7493 92.1249 64.8492C92.3533 64.9491 92.4961 65.0205 92.5532 65.049L92.4675 65.306C92.1107 65.1632 91.7681 65.0348 91.4255 64.9349L90.8973 64.7778C90.5262 64.6636 89.9838 64.5066 89.2986 64.3496L89.3842 64.0927C89.4413 64.1069 89.6269 64.1355 89.9409 64.2069C90.255 64.2639 90.5262 64.2354 90.7403 64.1212C90.9544 64.007 91.0972 63.7929 91.1971 63.4931L91.4255 62.7508L88.7419 61.9087C88.4564 61.823 88.2565 61.7802 88.1138 61.7802C87.971 61.7802 87.8568 61.8373 87.7855 61.9515C87.6998 62.0657 87.6142 62.2512 87.5285 62.5225L87.2716 63.3361C87.1288 63.8072 87.0718 64.1783 87.1288 64.4495C87.1717 64.735 87.3144 64.9634 87.5571 65.1632C87.7998 65.3488 88.1709 65.5629 88.6705 65.7913L88.5849 66.0483C88.4136 65.9198 88.1423 65.8342 87.7998 65.72Z" fill="#292F36"/>
<path d="M83.7317 83.2348C83.7888 83.1064 83.7745 82.9779 83.7174 82.8494C83.6603 82.7209 83.5175 82.5639 83.3034 82.3498L79.1067 78.3387C78.8926 78.1388 78.7213 78.0104 78.5928 77.9533C78.4644 77.8962 78.3359 77.8962 78.2074 77.9533C78.0789 78.0104 77.9219 78.1388 77.7221 78.3387L77.5508 78.1816C77.822 77.939 78.1646 77.5821 78.6071 77.1396C79.0639 76.6543 79.4065 76.2831 79.6206 76.0405L79.7919 76.1975C79.6063 76.4116 79.4921 76.5829 79.435 76.6971C79.3779 76.8256 79.3922 76.954 79.4493 77.0825C79.5064 77.211 79.6491 77.368 79.8633 77.5821L84.06 81.5933C84.2741 81.7931 84.4454 81.9216 84.5739 81.9787C84.7023 82.0358 84.8308 82.0358 84.9593 81.9787C85.0877 81.9216 85.2448 81.7931 85.4446 81.5933L85.6159 81.7503C85.3732 81.9644 85.0164 82.3213 84.5596 82.8066C84.1171 83.2634 83.7888 83.6345 83.5604 83.9057L83.3891 83.7487C83.5604 83.5346 83.6746 83.3633 83.7317 83.2348Z" fill="#292F36"/>
<path d="M71.8401 91.9422C71.9258 91.8138 71.9401 91.6853 71.9115 91.5283C71.883 91.3713 71.783 91.1714 71.626 90.9002L68.0859 84.8906L68.3143 84.7479L76.3937 88.7876L73.2676 83.4774C73.1106 83.2205 72.9821 83.0349 72.8536 82.935C72.7252 82.8351 72.5824 82.7923 72.4254 82.8065C72.2684 82.8208 72.0543 82.9065 71.783 83.0492L71.6546 82.8494C71.9115 82.7352 72.2541 82.5353 72.6966 82.2784C73.0963 82.0357 73.3961 81.8501 73.6102 81.6931L73.7244 81.893C73.496 82.0357 73.339 82.1784 73.2676 82.3069C73.1819 82.4354 73.1677 82.5639 73.1962 82.7209C73.2248 82.8779 73.3247 83.0777 73.4817 83.349L76.3652 88.2451C76.5079 88.5021 76.6364 88.6734 76.7506 88.759C76.8648 88.8447 76.979 88.8875 77.1217 88.8589C77.2502 88.8304 77.45 88.759 77.6927 88.6305L77.8069 88.8304C77.5785 88.9446 77.2645 89.1159 76.8505 89.3585C76.5507 89.5298 76.2938 89.7011 76.0797 89.8439L69.2993 86.4608L71.8401 90.7717C71.9972 91.0287 72.1256 91.2142 72.2541 91.3142C72.3683 91.4141 72.511 91.4569 72.6823 91.4426C72.8536 91.4283 73.0678 91.3427 73.339 91.2L73.4532 91.3998C73.1962 91.514 72.8536 91.7138 72.4111 91.9708C72.0114 92.2134 71.7117 92.399 71.4976 92.556L71.3834 92.3562C71.5975 92.1992 71.7545 92.0564 71.8401 91.9422Z" fill="#292F36"/>
<path d="M63.9897 93.8123C64.0896 94.2549 64.218 94.7402 64.3893 95.2541C63.747 95.3683 62.6764 95.5967 61.1633 95.9107C59.6502 96.239 58.5939 96.4817 57.9658 96.6387C57.8944 96.082 57.8231 95.5967 57.7231 95.1542C57.6375 94.7687 57.5661 94.4547 57.4805 94.2263L57.7374 94.1692C57.923 94.7545 58.0943 95.1684 58.2513 95.4396C58.4083 95.7109 58.6082 95.8822 58.8651 95.9678C59.122 96.0534 59.4932 96.0392 59.9642 95.9392L60.578 95.8108L59.1791 89.3159C59.1078 89.0018 59.0364 88.7734 58.9365 88.645C58.8366 88.5165 58.7224 88.4308 58.5511 88.4166C58.3798 88.388 58.1228 88.4166 57.7802 88.4737L57.7374 88.2453C58.1371 88.1882 58.7081 88.074 59.4218 87.917C60.1784 87.7457 60.7493 87.6172 61.1062 87.5173L61.149 87.7457C60.8064 87.8313 60.578 87.917 60.4353 88.0026C60.2926 88.0883 60.2069 88.2167 60.1784 88.3737C60.1498 88.5308 60.1641 88.7734 60.2355 89.0875L61.6344 95.5824L62.2482 95.4539C62.7192 95.354 63.0618 95.2112 63.2617 95.0257C63.4615 94.8401 63.5757 94.5974 63.6042 94.2977C63.6328 93.9979 63.6185 93.5411 63.5471 92.9416L63.8041 92.8845C63.8469 93.1129 63.904 93.4269 63.9897 93.8123Z" fill="#292F36"/>
<path d="M45.0468 89.8011C45.0896 89.3586 45.1039 88.859 45.1039 88.3022C45.632 88.3736 46.5171 88.4593 47.7732 88.5735C49.2578 88.7019 50.3854 88.8019 51.1563 88.8447L51.142 89.0731C50.8565 89.0588 50.6567 89.0731 50.5282 89.1159C50.3997 89.1587 50.2998 89.2301 50.2427 89.3586C50.1856 89.487 50.1428 89.7012 50.1142 89.9866L49.6003 95.7678C49.5718 96.0533 49.5861 96.2674 49.6146 96.4102C49.6432 96.5529 49.7288 96.6528 49.8573 96.7099C49.9858 96.767 50.1856 96.8241 50.4568 96.8527L50.4425 97.0811C49.686 96.9954 48.5583 96.8812 47.0738 96.7528C45.9318 96.6528 45.1181 96.5958 44.6328 96.5672C44.7327 96.0676 44.8041 95.6108 44.8327 95.1968C44.8612 94.8971 44.8755 94.6544 44.8612 94.4688L45.1324 94.4974C45.1467 95.0113 45.1752 95.3824 45.2466 95.6394C45.3037 95.8963 45.4322 96.0819 45.632 96.2103C45.8176 96.3388 46.1316 96.4245 46.5313 96.453L47.502 96.5386C47.7875 96.5672 47.9873 96.5529 48.1158 96.5244C48.2443 96.4958 48.3442 96.4102 48.4013 96.2817C48.4584 96.1532 48.5012 95.9391 48.5298 95.6536L48.7724 92.9129L48.0016 92.8415C47.6162 92.813 47.345 92.8986 47.188 93.127C47.0452 93.3554 46.931 93.5838 46.8882 93.8265C46.8311 94.0692 46.8025 94.2262 46.7883 94.2975L46.5171 94.269C46.5741 93.8836 46.617 93.5267 46.6598 93.1699L46.7026 92.6132C46.7312 92.2135 46.7597 91.671 46.7883 90.9573L47.0595 90.9859C47.0595 91.043 47.0738 91.2285 47.0738 91.5568C47.088 91.8852 47.1594 92.1421 47.3307 92.3134C47.4877 92.499 47.7304 92.5989 48.0444 92.6274L48.8153 92.6988L49.0579 89.901C49.0865 89.6155 49.0722 89.4014 49.0436 89.2586C49.0151 89.1302 48.9295 89.0302 48.801 88.9732C48.6725 88.9161 48.4727 88.8732 48.2014 88.8447L47.345 88.7733C46.8596 88.7305 46.4885 88.759 46.2173 88.8732C45.9603 88.9731 45.7605 89.173 45.6178 89.4442C45.475 89.7154 45.3608 90.1294 45.2466 90.6718L44.9754 90.6433C44.9754 90.4292 45.004 90.1437 45.0468 89.8011Z" fill="#292F36"/>
<path d="M33.8137 84.5052C34.0278 84.4624 34.2705 84.5052 34.5274 84.6194C34.8272 84.7479 35.0271 84.9335 35.1413 85.1761C35.2555 85.4331 35.2697 85.7899 35.1984 86.261L34.9842 87.4315C34.9129 87.8455 34.87 88.1595 34.8558 88.4022C34.8415 88.6306 34.8986 88.8447 34.9985 89.0303C35.0984 89.2158 35.284 89.3586 35.5552 89.4728L36.583 89.901L37.625 87.4172C37.7392 87.146 37.7963 86.9462 37.8106 86.8034C37.8249 86.6607 37.7678 86.5465 37.6678 86.4466C37.5679 86.3467 37.3966 86.2467 37.1397 86.1325L37.2253 85.9184C37.5536 86.0754 37.9962 86.2753 38.5814 86.518C39.1952 86.7749 39.6663 86.9605 39.9803 87.0604L39.8947 87.2745C39.6235 87.1746 39.4236 87.1318 39.2951 87.1175C39.1524 87.1175 39.0382 87.1603 38.9526 87.2745C38.8526 87.3744 38.7527 87.56 38.6385 87.8312L36.3974 93.1842C36.2832 93.4554 36.2261 93.6552 36.2118 93.798C36.1976 93.9407 36.2547 94.0549 36.3546 94.1548C36.4545 94.2547 36.6258 94.3547 36.8827 94.4831L36.7971 94.6973C36.4973 94.5545 36.0691 94.3547 35.4981 94.112C35.2126 93.9978 34.9129 93.8693 34.5703 93.7266C34.2277 93.5839 33.9993 93.4982 33.8708 93.4411C33.3141 93.1984 32.8716 92.9272 32.5433 92.5989C32.215 92.2706 32.0294 91.928 31.9438 91.5569C31.8581 91.1857 31.9009 90.8289 32.058 90.472C32.1722 90.1865 32.3577 89.9296 32.6147 89.7012C32.8716 89.4728 33.1999 89.3015 33.5996 89.2158C33.9993 89.1302 34.4846 89.1445 35.0128 89.2729L34.8843 89.2016C34.5845 89.016 34.3562 88.8304 34.2134 88.6306C34.0707 88.445 33.9707 88.2309 33.9422 88.0025C33.8994 87.7741 33.9136 87.4886 33.9707 87.146L34.1706 85.9327C34.2134 85.69 34.242 85.5045 34.242 85.3617C34.242 85.219 34.2277 85.1048 34.1849 85.0191C34.142 84.9335 34.0707 84.8621 33.9707 84.8336C33.8565 84.7765 33.7424 84.7765 33.6424 84.805C33.5425 84.8336 33.3998 84.9049 33.2142 85.0048L33.1 84.8193C33.3569 84.6623 33.5996 84.5481 33.8137 84.5052ZM34.5274 89.587C34.1849 89.6298 33.9136 89.7583 33.6995 89.9724C33.4854 90.1865 33.2998 90.472 33.1428 90.8431C32.9002 91.4284 32.8431 91.9423 33.0001 92.3562C33.1571 92.7702 33.5425 93.1128 34.1849 93.384C34.4133 93.4839 34.5845 93.5268 34.7273 93.5125C34.8558 93.5125 34.97 93.4554 35.0699 93.3412C35.1698 93.227 35.2697 93.0414 35.3696 92.7845L36.4831 90.1294L35.7551 89.8296C35.284 89.6298 34.87 89.5441 34.5274 89.587Z" fill="#292F36"/>
<path d="M22.6793 86.4466C22.8078 86.4894 22.9363 86.4609 23.0505 86.3895C23.1647 86.3181 23.3217 86.1611 23.5072 85.9327L27.0902 81.3649C27.2757 81.1365 27.3899 80.9509 27.4327 80.8225C27.4756 80.694 27.4613 80.5655 27.3899 80.4513C27.3185 80.3371 27.1758 80.1801 26.9617 79.9945L27.1044 79.809C27.3756 80.0516 27.7468 80.3657 28.2464 80.7511C28.7745 81.165 29.1742 81.4648 29.4454 81.6504L29.3027 81.8359C29.0743 81.6647 28.8887 81.5647 28.7603 81.5362C28.6318 81.4934 28.5033 81.5076 28.3891 81.5933C28.2749 81.6646 28.1179 81.8217 27.9323 82.0501L24.3494 86.6179C24.1639 86.8463 24.0497 87.0319 24.0069 87.1603C23.964 87.2888 23.9783 87.4173 24.0497 87.5315C24.121 87.6457 24.2638 87.8027 24.4779 87.9883L24.3352 88.1738C24.0925 87.9597 23.7071 87.6457 23.1789 87.2174C22.6793 86.832 22.2796 86.5323 21.9941 86.3324L22.1369 86.1469C22.3796 86.3039 22.5508 86.4038 22.6793 86.4466Z" fill="#292F36"/>
<path d="M13.4576 76.2832C13.4005 75.6409 13.5432 74.9985 13.8716 74.3847C14.2141 73.7566 14.728 73.1999 15.4418 72.6717C16.1412 72.1721 16.8407 71.8438 17.5687 71.7154C18.2967 71.5869 18.9676 71.6297 19.5956 71.8724C20.2237 72.115 20.7519 72.529 21.1658 73.1143C21.6084 73.7138 21.851 74.3419 21.9081 74.9842C21.9652 75.6266 21.8225 76.2689 21.4942 76.8827C21.1516 77.5108 20.6377 78.0675 19.924 78.5957C19.2245 79.0953 18.5251 79.4236 17.797 79.5521C17.0833 79.6805 16.3981 79.6377 15.7701 79.3951C15.142 79.1524 14.6138 78.7384 14.1999 78.1674C13.7574 77.5536 13.5147 76.9256 13.4576 76.2832ZM15.5988 78.8241C16.0984 78.924 16.6694 78.8812 17.2974 78.6813C17.9255 78.4815 18.5536 78.1532 19.2102 77.6678C19.8669 77.1968 20.3807 76.6829 20.7376 76.1405C21.1087 75.598 21.3086 75.0556 21.3371 74.5417C21.38 74.0278 21.2515 73.571 20.9803 73.1856C20.6805 72.7859 20.2951 72.529 19.7812 72.4291C19.2816 72.3292 18.7106 72.372 18.0825 72.5718C17.4545 72.7717 16.8264 73.1 16.1698 73.571C15.5131 74.0421 14.9992 74.556 14.6424 75.1127C14.2712 75.6551 14.0714 76.1833 14.0286 76.7114C13.9857 77.2253 14.1142 77.6821 14.3854 78.0675C14.6852 78.4672 15.0849 78.7242 15.5988 78.8241Z" fill="#292F36"/>
<path d="M14.5567 59.0966C14.728 59.2251 14.8565 59.4392 14.9421 59.7247C15.042 60.0245 15.0278 60.31 14.9136 60.5526C14.7994 60.8096 14.5282 61.0522 14.1142 61.2949L13.0721 61.8801C12.7153 62.0943 12.4441 62.2656 12.2585 62.4083C12.0729 62.5511 11.9445 62.7224 11.8731 62.9222C11.8017 63.122 11.8017 63.3504 11.8874 63.6359L12.2157 64.7065L14.7851 63.9071C15.0706 63.8215 15.2562 63.7358 15.3703 63.6502C15.4845 63.5645 15.5416 63.4504 15.5559 63.3219C15.5702 63.1934 15.5274 62.9793 15.456 62.7081L15.6844 62.6367C15.77 62.9793 15.8985 63.4646 16.0984 64.0642C16.2982 64.7065 16.4552 65.1776 16.5694 65.4773L16.341 65.5487C16.2411 65.2775 16.1554 65.0919 16.0698 64.992C15.9842 64.8921 15.87 64.8207 15.7272 64.8207C15.5845 64.8207 15.3703 64.8493 15.0991 64.9492L9.56061 66.6621C9.27512 66.7478 9.08955 66.8334 8.97536 66.9191C8.86116 67.0047 8.80406 67.1189 8.78979 67.2474C8.77551 67.3901 8.81834 67.59 8.88971 67.8612L8.66132 67.9326C8.58995 67.6185 8.46147 67.1617 8.27591 66.5622C8.19026 66.2767 8.07606 65.9484 7.96187 65.6058C7.84767 65.2632 7.76202 65.0205 7.7192 64.8921C7.53363 64.3068 7.47653 63.7929 7.51936 63.3362C7.56218 62.8794 7.70492 62.5082 7.93332 62.2085C8.16171 61.9087 8.46147 61.7089 8.83261 61.5947C9.1181 61.509 9.43214 61.4805 9.77473 61.5233C10.1173 61.5661 10.4456 61.7089 10.7882 61.9658C11.1308 62.2227 11.4163 62.5939 11.659 63.0935L11.6447 62.9507C11.6019 62.5939 11.5876 62.3084 11.6447 62.0657C11.7018 61.8231 11.8017 61.6232 11.9445 61.4519C12.1015 61.2806 12.3299 61.0951 12.6296 60.9238L13.686 60.2957C13.9001 60.1815 14.0714 60.0673 14.1713 59.9816C14.2712 59.896 14.3569 59.8103 14.3997 59.7247C14.4425 59.639 14.4425 59.5391 14.414 59.4392C14.3711 59.3107 14.314 59.2251 14.2284 59.168C14.1427 59.1109 14 59.0395 13.8002 58.9681L13.8715 58.754C14.157 58.854 14.3997 58.9681 14.5567 59.0966ZM11.1451 62.9222C10.9024 62.6938 10.6169 62.5653 10.3172 62.5368C10.0174 62.5082 9.67481 62.5511 9.2894 62.6795C8.67559 62.8651 8.26163 63.1649 8.03324 63.5503C7.80485 63.9357 7.80485 64.4638 8.00469 65.1062C8.07606 65.3346 8.16171 65.5059 8.24736 65.6058C8.333 65.7057 8.46147 65.7628 8.60422 65.7628C8.74697 65.7628 8.96108 65.72 9.21803 65.6486L11.9587 64.7922L11.7303 64.0356C11.5876 63.5217 11.3878 63.1506 11.1451 62.9222Z" fill="#292F36"/>
<path d="M13.4578 45.5501C14.0002 45.3074 14.3285 44.8506 14.4713 44.1655C14.5141 43.9085 14.5141 43.6516 14.4427 43.4089C14.3713 43.1662 14.2429 42.9521 14.043 42.7666C13.8432 42.581 13.572 42.4525 13.2151 42.3954C12.9153 42.3383 12.6441 42.3669 12.3872 42.4668C12.1302 42.5667 11.8733 42.7237 11.6306 42.9379C11.388 43.152 11.1025 43.4375 10.7884 43.7943C10.4316 44.194 10.1175 44.5223 9.84632 44.7507C9.5751 44.9934 9.27533 45.1647 8.94702 45.2932C8.61871 45.4216 8.24757 45.4359 7.83361 45.3645C7.40537 45.2789 7.04851 45.1219 6.79157 44.8649C6.53462 44.608 6.34905 44.3082 6.26341 43.9513C6.17776 43.5945 6.17776 43.2233 6.24913 42.8237C6.29196 42.581 6.34905 42.3954 6.42043 42.2241C6.4918 42.0528 6.56317 41.9244 6.64882 41.8244C6.73447 41.7245 6.82011 41.6103 6.93431 41.4961C7.07706 41.3391 7.14843 41.2249 7.17698 41.1393C7.19125 41.0679 7.1627 41.0108 7.09133 40.9537C7.01996 40.8966 6.89149 40.8538 6.72019 40.7967L6.76302 40.5397C7.20553 40.6539 7.97635 40.8252 9.10404 41.0393L9.06122 41.2963C8.66153 41.2535 8.29039 41.2677 7.91925 41.3534C7.56239 41.4248 7.24835 41.5818 6.99141 41.8244C6.73447 42.0528 6.56317 42.3811 6.4918 42.7808C6.4347 43.0521 6.44898 43.2947 6.52035 43.5374C6.59172 43.7801 6.72019 43.9656 6.89149 44.1226C7.07706 44.2797 7.29117 44.3796 7.54812 44.4367C7.96208 44.5081 8.31894 44.451 8.61871 44.2511C8.91847 44.0513 9.20396 43.7943 9.47518 43.4946C9.74639 43.1948 9.91769 42.995 10.0176 42.895C10.4173 42.4668 10.7456 42.1385 11.0168 41.8958C11.288 41.6531 11.5878 41.4819 11.9161 41.3677C12.2444 41.2535 12.6013 41.2392 12.9867 41.3106C13.4578 41.3962 13.8432 41.5818 14.1287 41.853C14.4142 42.1385 14.5997 42.4668 14.6997 42.8665C14.7996 43.2662 14.7996 43.6944 14.7139 44.1512C14.6426 44.5223 14.5569 44.8078 14.4284 45.0362C14.3142 45.2646 14.1572 45.4644 13.9859 45.65C13.8432 45.807 13.7718 45.9212 13.7433 46.0069C13.729 46.0783 13.7575 46.1354 13.8289 46.1925C13.9003 46.2495 14.0288 46.3066 14.2 46.3495L14.1572 46.6064C13.7433 46.4922 12.8297 46.3066 11.4165 46.0497L11.4593 45.7928C12.2587 45.8641 12.9153 45.7928 13.4578 45.5501Z" fill="#292F36"/>
<path d="M10.6321 33.5165C10.2324 33.3024 9.7756 33.1026 9.26172 32.9027C9.57576 32.346 10.1039 31.3754 10.8176 29.9907C11.5314 28.6204 12.031 27.6497 12.3022 27.0645C12.7733 27.3642 13.2015 27.6212 13.5869 27.821C13.9295 28.0066 14.2293 28.135 14.4577 28.235L14.3292 28.4776C13.7582 28.2492 13.33 28.1065 13.0302 28.0637C12.7304 28.0066 12.4592 28.0637 12.2308 28.2064C12.0024 28.3492 11.774 28.6347 11.5599 29.0629L11.2744 29.6339L17.1698 32.7029C17.4553 32.8599 17.6837 32.9313 17.8407 32.9456C17.9977 32.9598 18.1405 32.917 18.269 32.8028C18.3974 32.6886 18.5402 32.4745 18.7115 32.1747L18.9256 32.2889C18.7115 32.6458 18.4402 33.1454 18.0977 33.802C17.7408 34.4872 17.4839 35.0154 17.3268 35.3437L17.1127 35.2295C17.2555 34.9154 17.3554 34.6728 17.3697 34.5158C17.3982 34.3445 17.3554 34.2017 17.2412 34.0733C17.127 33.9448 16.9414 33.8163 16.6559 33.6593L10.7605 30.576L10.4608 31.1327C10.2324 31.5609 10.1325 31.9035 10.1467 32.1747C10.161 32.446 10.2752 32.6886 10.4893 32.9027C10.7034 33.1169 11.0603 33.4023 11.5742 33.7307L11.4457 33.9733C11.2602 33.8591 10.9747 33.7021 10.6321 33.5165Z" fill="#292F36"/>
<path d="M20.7095 17.1153C20.9522 16.8726 21.152 16.6442 21.2947 16.4729L21.466 16.6442C21.3804 16.7727 21.3376 16.9582 21.3518 17.1724C21.3661 17.3865 21.4232 17.6862 21.5374 18.0431L22.8364 21.9115L24.3495 23.4103C24.5636 23.6102 24.7206 23.7529 24.8491 23.81C24.9776 23.8671 25.106 23.8671 25.2345 23.81C25.363 23.7529 25.52 23.6244 25.7341 23.4389L25.9054 23.6102C25.6342 23.8528 25.2773 24.1954 24.8348 24.6379C24.3638 25.109 24.0212 25.4801 23.8071 25.7228L23.6358 25.5515C23.8213 25.3374 23.9498 25.1804 24.0069 25.0519C24.064 24.9234 24.064 24.795 23.9926 24.6665C23.9355 24.538 23.7928 24.3667 23.5929 24.1669L22.3368 22.925L17.5691 21.5261C17.2836 21.4404 17.0695 21.4119 16.9267 21.4262C16.784 21.4404 16.6841 21.4833 16.6127 21.5546L16.4414 21.3833C16.6698 21.1835 16.9267 20.9551 17.1837 20.6839C17.7118 20.1415 18.0973 19.756 18.3114 19.4991L18.4827 19.6704C18.0973 20.0558 18.0116 20.3556 18.2257 20.5697C18.3114 20.6553 18.4256 20.7124 18.5969 20.7695L22.608 22.0114L21.5517 18.8567C21.3947 18.4 21.2377 18.0859 21.0664 17.9289C20.9093 17.7719 20.738 17.7291 20.5525 17.7862C20.3669 17.8433 20.1528 17.986 19.8958 18.2287L19.7245 18.0574C20.0671 17.7433 20.3812 17.4293 20.7095 17.1153Z" fill="#292F36"/>
<path d="M29.346 11.3626C29.2603 11.4625 29.2175 11.591 29.246 11.7337C29.2746 11.8765 29.346 12.0763 29.4887 12.3333L32.2437 17.4436C32.3864 17.7005 32.5006 17.8718 32.6148 17.9717C32.7148 18.0716 32.8432 18.1002 32.9717 18.0859C33.1002 18.0716 33.3 17.986 33.5427 17.8575L34.2992 17.4436C34.7275 17.2152 35.0272 16.9725 35.1843 16.7298C35.3413 16.4872 35.3984 16.2159 35.3555 15.8876C35.3127 15.5593 35.1843 15.1454 34.9559 14.6029L35.1985 14.4745C35.2984 14.7028 35.4412 14.9883 35.6268 15.3309C35.8409 15.7163 36.0978 16.1446 36.4119 16.6156C35.9408 16.844 35.1414 17.258 34.0423 17.8575C32.729 18.5712 31.7298 19.1137 31.0732 19.4991L30.959 19.2992C31.2017 19.1565 31.373 19.028 31.4586 18.9281C31.5442 18.8282 31.5871 18.6997 31.5585 18.557C31.53 18.4142 31.4586 18.2144 31.3159 17.9574L28.5323 12.8472C28.3896 12.5902 28.2754 12.4189 28.1612 12.319C28.0613 12.2191 27.9328 12.1905 27.8043 12.2048C27.6616 12.2191 27.476 12.2905 27.2191 12.4189L27.1191 12.2048C27.4189 12.0763 27.8614 11.8479 28.4467 11.5196C29.0034 11.2199 29.4316 10.9772 29.7314 10.7916L29.8456 10.9915C29.6029 11.1342 29.4459 11.2627 29.346 11.3626Z" fill="#292F36"/>
<path d="M46.7309 12.276C46.8165 12.7043 46.945 13.1896 47.102 13.732C46.5739 13.8177 45.7031 13.9747 44.4755 14.2174C43.0052 14.5029 41.9061 14.7313 41.1495 14.9026L41.1067 14.6742C41.3779 14.6028 41.5778 14.5457 41.692 14.46C41.8062 14.3887 41.8775 14.2745 41.8918 14.146C41.9061 14.0033 41.8918 13.7891 41.8347 13.5037L40.7213 7.80811C40.6642 7.52262 40.6071 7.32278 40.5215 7.19431C40.4358 7.06584 40.3502 6.99446 40.2074 6.98019C40.0789 6.95164 39.8648 6.96591 39.5936 7.00874L39.5508 6.78034C40.3073 6.65187 41.4207 6.45203 42.8767 6.16654C44.0044 5.93815 44.8038 5.78113 45.2606 5.66693C45.3034 6.18081 45.3748 6.6376 45.4462 7.03729C45.5033 7.33705 45.5604 7.56544 45.6175 7.73674L45.3605 7.79384C45.2035 7.3085 45.0608 6.95164 44.9323 6.72325C44.8038 6.49485 44.6182 6.35211 44.4041 6.28074C44.1757 6.20936 43.876 6.20936 43.462 6.29501L42.5056 6.48058C42.2344 6.53768 42.0346 6.59478 41.9204 6.66615C41.8062 6.73752 41.7348 6.83744 41.7062 6.98019C41.692 7.12293 41.7062 7.33705 41.7633 7.62254L42.2915 10.3347L43.048 10.1777C43.4335 10.1063 43.6618 9.93502 43.7475 9.67808C43.8331 9.42113 43.8617 9.17847 43.8474 8.9358C43.8331 8.69313 43.8189 8.53611 43.8189 8.46474L44.0758 8.40764C44.1186 8.79305 44.1757 9.14992 44.2471 9.49251L44.3613 10.0349C44.4327 10.4204 44.5611 10.9628 44.7467 11.648L44.4898 11.7051C44.4755 11.648 44.4184 11.4767 44.3185 11.1626C44.2186 10.8486 44.0758 10.6345 43.8617 10.506C43.6476 10.3775 43.4049 10.349 43.0909 10.4061L42.3343 10.5488L42.8767 13.3038C42.9338 13.5893 42.9909 13.7891 43.0623 13.9176C43.1337 14.0318 43.2336 14.1032 43.3764 14.1317C43.5048 14.146 43.7189 14.1317 43.9902 14.0746L44.8324 13.9033C45.3034 13.8034 45.6603 13.6749 45.8887 13.5037C46.1171 13.3324 46.2455 13.0897 46.3026 12.7899C46.3597 12.4902 46.3597 12.0619 46.3169 11.5052L46.5739 11.4481C46.6167 11.6622 46.6595 11.9335 46.7309 12.276Z" fill="#292F36"/>
<path d="M37.1113 66.7905C36.4547 65.9055 35.8837 64.9348 35.3841 63.8642C34.8845 62.7936 34.4848 61.7088 34.185 60.5954C33.5284 55.6992 33.5141 50.9458 34.1279 46.3351C34.7417 41.7244 35.7409 37.1851 37.1113 32.7029C37.3397 32.2033 37.8393 31.9606 38.6101 31.9606C39.381 31.9606 40.1375 32.1319 40.9083 32.4745C41.6792 32.8171 42.3072 33.2739 42.8068 33.8449C43.3065 34.4159 43.4207 35.0154 43.1494 35.6292C42.7212 36.5428 42.3072 37.7847 41.8933 39.3263C41.4793 40.8822 41.0654 42.5952 40.6942 44.4651C40.3088 46.3351 39.9805 48.305 39.695 50.3463C39.4095 52.3875 39.1954 54.3574 39.0669 56.2274C38.9384 58.0973 38.9099 59.796 38.9813 61.3091C39.0526 62.8222 39.281 64.0213 39.6664 64.892C41.465 62.4796 43.1066 59.9816 44.6054 57.3979C46.1043 54.8142 47.5032 52.2019 48.8164 49.5326C50.1297 46.8775 51.3858 44.1939 52.5706 41.4675C53.7554 38.7553 54.9259 36.0717 56.0679 33.4309C56.6389 32.0891 57.2099 30.6759 57.7666 29.1914C58.3233 27.6926 59.0513 26.4221 59.9791 25.3515C60.3645 25.0089 60.6643 24.8948 60.8641 25.0089C61.0782 25.1231 61.221 25.3373 61.2924 25.6656C61.3637 25.9939 61.4066 26.3365 61.4066 26.6933C61.4066 27.0502 61.4066 27.3357 61.4066 27.5213C61.1353 29.277 60.907 31.0185 60.7214 32.7457C60.5358 34.473 60.1219 36.1288 59.5223 37.7418C58.5231 40.2684 57.5096 42.7665 56.4533 45.2645C55.397 47.7483 54.2693 50.2035 53.0702 52.6159C51.8712 55.0283 50.5579 57.3693 49.1733 59.639C47.7744 61.9229 46.2613 64.0926 44.6054 66.1482C43.3065 67.7897 42.0075 68.6605 40.737 68.7604C39.4095 68.8746 38.2247 68.2037 37.1113 66.7905Z" fill="#292F36" stroke="white" stroke-miterlimit="10"/>
<path d="M60.749 60.3099C59.9782 59.2393 59.2217 58.1544 58.4794 57.041C57.7371 55.9276 57.366 54.7143 57.366 53.3725C57.366 51.8879 57.7942 50.4747 58.6507 49.1472C59.5071 47.834 60.4921 46.7634 61.6055 45.964C62.0623 45.6642 62.5333 45.4073 63.0044 45.2217C63.4755 45.0361 63.9893 45.0504 64.5318 45.2788C64.7602 45.393 65.0028 45.4787 65.2455 45.5358C65.4882 45.5929 65.7166 45.6642 65.9021 45.7356C66.0877 45.807 66.3018 45.9212 66.5302 46.0782C66.7586 46.2352 66.8728 46.4351 66.8728 46.7063C66.8728 47.7769 66.9013 48.6476 66.9584 49.3185C67.0155 49.9894 67.1012 50.5604 67.2154 51.0457C67.3296 51.5311 67.4438 51.945 67.558 52.3019C67.6722 52.673 67.7864 53.0584 67.9006 53.4724C67.9719 53.8578 67.9577 54.1861 67.8435 54.4431C67.7293 54.7143 67.4438 54.7428 66.987 54.5573C66.1448 54.2575 65.5167 53.6437 65.117 52.7158C64.7173 51.788 64.4176 50.9601 64.232 50.1893C64.1892 50.0322 64.1035 49.7753 63.9465 49.3899C63.7895 49.0045 63.7039 48.7333 63.661 48.5905C63.3613 48.5191 62.9901 48.6191 62.5762 48.9045C62.1622 49.19 61.7768 49.5897 61.4628 50.0751C61.1344 50.5747 60.9203 51.1456 60.8347 51.8023C60.7347 52.4589 60.8632 53.1013 61.2058 53.7579C61.3628 53.9863 61.5769 54.2718 61.8624 54.5858C62.1479 54.9141 62.4334 55.2424 62.7189 55.585C63.0044 55.9276 63.2899 56.2702 63.5754 56.5842C63.8609 56.8983 64.1035 57.1695 64.2891 57.3551C64.5175 57.5835 64.6745 57.7119 64.7459 57.7262C64.8173 57.7405 65.0171 57.6977 65.3169 57.5835C65.7023 57.3979 66.2875 57.141 67.0726 56.8412C67.8577 56.5414 68.6857 56.2274 69.5421 55.9276C70.3986 55.6279 71.2265 55.3709 72.0116 55.1568C72.7967 54.9427 73.3963 54.8427 73.8245 54.8427C74.0957 54.8427 74.2813 54.9427 74.3955 55.1282C74.5097 55.2424 74.4954 55.3995 74.3384 55.585C74.1814 55.7706 73.9815 55.9704 73.7389 56.156C73.4962 56.3416 73.225 56.5129 72.968 56.6699C72.6968 56.8269 72.5255 56.9126 72.4541 56.9554C71.7975 57.3408 70.9839 57.769 69.9847 58.2544C68.9854 58.7254 68.129 59.1965 67.401 59.6533C67.3296 59.7246 67.1868 59.8103 66.9727 59.8817C66.7586 59.953 66.6016 60.0387 66.4874 60.1101C66.9442 61.1378 67.2725 62.0371 67.4581 62.7794C67.6436 63.5217 67.715 64.2354 67.6579 64.9348C67.6008 65.62 67.4581 66.3195 67.2297 67.0332C67.0013 67.7469 66.6872 68.5606 66.3161 69.4741C65.7737 70.3592 65.2312 71.2014 64.6745 72.0007C64.1178 72.8001 63.504 73.5281 62.8046 74.1847C62.1194 74.8414 61.3628 75.3553 60.5635 75.7264C59.7641 76.1118 58.8791 76.2974 57.9227 76.2974C57.3802 76.2974 56.8664 76.226 56.3667 76.0975C55.8671 75.9691 55.4532 75.6836 55.1106 75.2696C54.2256 74.3132 53.7402 73.2712 53.626 72.1435C53.5118 71.0158 53.6118 69.9024 53.9115 68.789C54.1399 68.1038 54.4254 67.4757 54.768 66.8905C55.6102 65.4345 56.538 64.2068 57.5515 63.1934C58.5793 62.1941 59.6356 61.2235 60.749 60.3099ZM62.7046 62.8936C62.2764 63.3218 61.7054 63.9214 60.9774 64.7065C60.2494 65.4916 59.5785 66.348 58.9362 67.2616C58.3081 68.1752 57.7942 69.0887 57.3945 69.988C56.9948 70.8873 56.8949 71.6582 57.0805 72.3148C57.8513 71.9722 58.6364 71.4012 59.4358 70.6161C60.2351 69.831 60.9489 68.9745 61.5627 68.0324C62.1765 67.0903 62.6047 66.1625 62.8474 65.2489C63.0901 64.321 63.0472 63.5359 62.7046 62.8936Z" fill="#292F36" stroke="white" stroke-miterlimit="10"/>
<path d="M51.4436 83.5489C33.5862 83.5489 19.0547 69.0174 19.0547 51.16C19.0547 33.3025 33.5862 18.7711 51.4436 18.7711C69.3011 18.7711 83.8325 33.3025 83.8325 51.16C83.8325 69.0174 69.3011 83.5489 51.4436 83.5489ZM51.4436 20.1985C34.3713 20.1985 20.4821 34.0876 20.4821 51.16C20.4821 68.2323 34.3713 82.1214 51.4436 82.1214C68.516 82.1214 82.4051 68.2323 82.4051 51.16C82.4051 34.0876 68.516 20.1985 51.4436 20.1985Z" fill="#292F36"/>
</svg>
