<svg width="164" height="44" viewBox="0 0 164 44" fill="none" xmlns="http://www.w3.org/2000/svg">
<path d="M35.4007 43.5479H8.58239C4.17524 43.5479 0.603516 39.9762 0.603516 35.569V8.7508C0.603516 4.34365 4.17524 0.771912 8.58239 0.771912H35.4007C39.8078 0.771912 43.3795 4.34365 43.3795 8.7508V35.569C43.3795 39.9762 39.8078 43.5479 35.4007 43.5479Z" fill="#292F36"/>
<path d="M29.6991 22.5535C30.4619 23.51 30.8494 24.6238 30.8494 25.883C30.8494 27.7355 30.2319 29.1884 28.9969 30.2175C27.7619 31.2467 25.9942 31.7794 23.6938 31.7794H13.6445V10.1674H23.4516C25.6552 10.1674 27.3503 10.6517 28.5489 11.6082C29.7476 12.5647 30.353 13.9329 30.353 15.7006C30.353 17.0082 30.0019 18.0858 29.3117 18.9575C28.6216 19.8293 27.7135 20.3862 26.5875 20.6526C27.9072 20.9674 28.9364 21.597 29.6991 22.5535ZM18.8629 19.0059H22.2893C24.1055 19.0059 25.0135 18.2311 25.0135 16.6813C25.0135 15.1315 24.0812 14.3566 22.2288 14.3566H18.8629V19.0059ZM25.4978 25.1566C25.4978 24.3817 25.2436 23.7763 24.7351 23.3405C24.2265 22.9046 23.5001 22.6866 22.5678 22.6866H18.875V27.5418H22.6041C24.5292 27.5297 25.4978 26.7427 25.4978 25.1566Z" fill="white"/>
<path d="M68.1648 31.7798L63.4912 23.6193H62.3047V31.7798H57.0742V10.1678H65.9975C67.7047 10.1678 69.1576 10.4584 70.332 11.0516C71.5186 11.6449 72.4024 12.4561 72.9957 13.4853C73.5889 14.5144 73.8795 15.6888 73.8795 17.0207C73.8795 18.5947 73.4436 19.9265 72.584 21.0283C71.7123 22.1301 70.4652 22.8807 68.8064 23.2924L73.94 31.7919H68.1648V31.7798ZM62.3047 20.0476H65.5374C66.5786 20.0476 67.3414 19.8175 67.8257 19.3574C68.31 18.8973 68.5643 18.2193 68.5643 17.3234C68.5643 16.4637 68.31 15.7978 67.8136 15.3014C67.3172 14.8171 66.5544 14.5628 65.5374 14.5628H62.3047V20.0476Z" fill="#292F36"/>
<path d="M97.5377 27.8449H89.4377L88.0938 31.7919H82.5969L90.5153 10.3373H96.5328L104.451 31.7919H98.8938L97.5377 27.8449ZM96.1938 23.8615L93.5059 15.9189L90.7817 23.8615H96.1938Z" fill="#292F36"/>
<path d="M133.303 31.7798H128.073L119.331 18.5099V31.7798H114.101V10.1678H119.331L128.073 23.5588V10.1678H133.303V31.7798Z" fill="#292F36"/>
<path d="M162.628 26.5736C161.72 28.2081 160.412 29.4915 158.717 30.4117C157.01 31.3318 155.012 31.7919 152.712 31.7919H144.551V10.1799H152.712C155.036 10.1799 157.046 10.6279 158.729 11.5239C160.424 12.4198 161.72 13.679 162.628 15.3135C163.536 16.9481 163.984 18.8126 163.984 20.9435C163.984 23.0503 163.524 24.9269 162.628 26.5736ZM156.998 25.4839C158.124 24.4063 158.693 22.8808 158.693 20.9314C158.693 18.97 158.124 17.4566 156.998 16.379C155.872 15.3014 154.286 14.7566 152.24 14.7566H149.77V27.1063H152.24C154.286 27.1063 155.872 26.5736 156.998 25.4839Z" fill="#292F36"/>
</svg>
