<svg width="146" height="45" viewBox="0 0 146 45" fill="none" xmlns="http://www.w3.org/2000/svg">
<path d="M21.2244 8.95747L22.295 8.72908C22.5662 8.72908 22.7946 8.78618 22.9516 8.90038C23.1087 9.01457 23.1943 9.12877 23.1943 9.22869C23.1943 9.32861 23.1658 9.48563 23.1229 9.6712C23.0801 9.85677 22.6804 11.7696 21.9381 15.381C21.1959 18.9925 20.6534 21.6904 20.3108 23.4604C21.9667 21.205 23.908 18.4358 26.1206 15.1383C28.3331 11.8409 29.6321 9.65693 30.0033 8.57206C30.1175 8.22947 30.2745 7.97253 30.46 7.78696C30.6456 7.60139 30.8169 7.4872 30.9597 7.45865C31.1024 7.4301 31.3308 7.40155 31.6306 7.40155C31.9303 7.40155 32.2872 7.47292 32.7012 7.6014C33.1151 7.72987 33.3292 7.94398 33.3292 8.25802C33.3292 8.829 32.4728 10.4991 30.7741 13.2398C29.0754 15.9805 27.1198 18.8925 24.9215 21.9758C22.7233 25.0591 20.8961 27.5001 19.4258 29.2987C19.1689 29.6127 18.8406 29.784 18.4694 29.784C18.0983 29.784 17.6986 29.7127 17.2846 29.5842C16.8707 29.4557 16.6566 29.2273 16.6566 28.8847C16.6566 27.8141 17.5987 22.6468 19.4829 13.4111C17.8699 15.4952 15.9143 18.4072 13.6161 22.1329C11.218 25.987 9.86189 28.3851 9.54785 29.2987C9.37656 29.8554 9.17672 30.1837 8.94833 30.2694C8.79131 30.3407 8.62 30.3693 8.44871 30.3693L7.29248 30.4977C7.06408 30.4977 6.86424 30.4406 6.66439 30.3122C6.47882 30.1837 6.37891 30.0552 6.37891 29.9125C6.37891 29.5271 6.92135 28.3566 7.99194 26.4152C9.06253 24.4739 10.333 22.3613 11.7747 20.0773C13.2164 17.7934 14.7152 15.5809 16.2854 13.4254C17.8556 11.27 19.069 9.81395 19.9254 9.08595C20.0967 8.92893 20.2966 8.85755 20.525 8.85755L21.2244 8.95747Z" fill="#292F36"/>
<path d="M38.382 18.6358C39.1243 18.6358 39.4954 18.8927 39.4954 19.3923C39.4954 19.6635 39.4383 19.8634 39.3098 19.9918C39.1814 20.1203 38.9101 20.5343 38.4962 21.2623C38.0822 21.976 37.6254 22.8896 37.1258 24.0173C36.6262 25.1307 36.2979 26.0871 36.1552 26.8722C36.1266 26.9721 36.1123 27.1006 36.1123 27.2861C36.1123 27.8286 36.2551 28.0855 36.5549 28.0855C36.8546 28.0855 37.1972 27.9428 37.5969 27.6715C37.9966 27.386 38.3534 27.1006 38.6675 26.7722C38.9815 26.4582 39.2813 26.1299 39.581 25.8016C39.8808 25.4733 40.0521 25.2734 40.1092 25.2306C40.1663 25.1878 40.252 25.1592 40.3661 25.1592C40.5517 25.1592 40.6659 25.302 40.7087 25.5875C40.7516 25.8729 40.7658 26.1584 40.7658 26.4725C40.7658 26.7865 40.7373 26.9864 40.6802 27.1006C40.3947 27.6573 39.7809 28.3282 38.8102 29.1133C37.8538 29.8984 36.9688 30.2838 36.1837 30.2838C35.3986 30.2838 34.8134 30.0411 34.4565 29.57C34.0996 29.099 33.8998 28.5566 33.8998 27.9856C33.8998 27.4003 33.9997 26.9007 34.1996 26.4582C33.3859 27.5145 32.4581 28.3995 31.416 29.1418C30.3597 29.8698 29.5175 30.241 28.8466 30.241C28.1757 30.241 27.6476 30.0411 27.2193 29.6414C26.6769 29.1418 26.4199 28.4566 26.4199 27.5716C26.4199 26.6866 26.6198 25.8016 27.0194 24.9023C27.4191 24.0173 27.933 23.1893 28.5754 22.4613C29.2177 21.7191 29.9315 21.0482 30.7023 20.4486C32.3153 19.1782 33.8141 18.5501 35.1845 18.5501C35.7126 18.5501 36.1409 18.6358 36.4692 18.8071C36.7975 18.9783 37.0116 19.2067 37.0973 19.4637C37.3257 19.1068 37.5255 18.8927 37.6968 18.7928C37.8253 18.6786 38.0679 18.6358 38.382 18.6358ZM36.4407 20.2631C34.7705 20.2631 33.0433 21.1909 31.259 23.0466C30.6309 23.7175 30.0457 24.5026 29.5032 25.4304C28.9608 26.3583 28.7039 26.9864 28.7039 27.3289C28.7039 27.6715 28.8038 27.8428 29.0036 27.8428C29.2748 27.8428 30.0314 27.3004 31.2875 26.2298C32.5437 25.1592 33.3716 24.3598 33.7713 23.846C34.2281 23.275 35.1131 22.0759 36.4407 20.2631Z" fill="#292F36"/>
<path d="M49.4874 10.8988L50.0869 11.0415C50.1726 11.0415 50.2582 11.0844 50.3153 11.17C50.3867 11.2557 50.4152 11.3413 50.4152 11.4127C50.4152 11.4841 50.3153 11.6982 50.1012 12.0408C49.8871 12.3834 49.6587 12.7688 49.3732 13.197C49.0877 13.6252 48.945 13.8679 48.9307 13.9107C49.6872 13.8536 50.2297 13.8251 50.5437 13.8251C50.8577 13.8251 51.0719 13.8536 51.2003 13.8965C51.3145 13.9393 51.4573 14.0678 51.6 14.2676C51.757 14.4674 51.8855 14.6245 52.014 14.7244C52.1425 14.8243 52.1996 14.9813 52.1996 15.1812C52.1996 15.381 52.0711 15.5666 51.8284 15.695C51.5857 15.8378 51.3145 15.9234 51.029 15.952C48.7594 16.1804 47.5175 16.2946 47.2891 16.3089C46.504 17.5222 45.3906 19.4064 43.9774 21.9616C42.5642 24.5167 41.8077 26.1297 41.722 26.7721C41.6792 27.0719 41.6649 27.3002 41.6649 27.4858C41.6649 27.8712 41.8648 28.0568 42.2645 28.0568C42.6642 28.0568 43.1067 27.8998 43.592 27.6C44.0773 27.286 44.5341 26.9577 44.9338 26.6008C46.0329 25.6301 46.6182 25.1305 46.6896 25.1305C46.9465 25.1305 47.075 25.573 47.075 26.4438C47.075 26.9148 46.8609 27.3431 46.4184 27.7285C45.4334 28.5707 44.6055 29.213 43.9346 29.6413C43.2637 30.0695 42.5928 30.2836 41.9076 30.2836C41.7649 30.2836 41.6221 30.2693 41.4937 30.2408C40.7086 30.0981 40.1376 29.8126 39.7807 29.3843C39.4096 28.9561 39.2383 28.3851 39.2383 27.6714C39.2383 26.9577 39.4524 26.0726 39.8806 25.0449C40.3089 24.0171 40.837 22.918 41.4794 21.7617C42.5357 19.8632 43.592 18.0932 44.6341 16.4373L44.0773 16.5087C42.9497 16.6372 42.293 16.6943 42.1075 16.6943H41.979C41.6935 16.6943 41.4223 16.6372 41.1653 16.523C40.9084 16.4088 40.7656 16.266 40.7656 16.109C40.7656 15.9377 40.837 15.7807 40.9798 15.6237C41.1225 15.4667 41.2082 15.3382 41.2367 15.2525C41.3081 15.0384 41.565 14.7958 42.0075 14.5388C42.45 14.2819 42.7784 14.1391 43.0068 14.1248C43.2352 14.1106 43.4493 14.0963 43.6634 14.082C43.8775 14.0678 44.1059 14.0677 44.3628 14.0535C44.6198 14.0392 44.8196 14.0392 44.9624 14.0249L46.2756 13.9678C47.0893 12.7402 47.6603 11.9408 47.96 11.5983C48.2741 11.2414 48.4454 11.0558 48.4882 11.0273C48.531 10.9987 48.6309 10.9702 48.7879 10.9702L49.4874 10.8988Z" fill="#292F36"/>
<path d="M58.2668 25.1592C58.4523 25.1592 58.5665 25.3019 58.6093 25.5874C58.6522 25.8729 58.6665 26.1584 58.6665 26.4724C58.6665 26.7865 58.6379 26.9863 58.5808 27.1005C58.2953 27.6429 57.6815 28.3138 56.7251 29.0989C55.7687 29.884 54.8551 30.2837 53.9987 30.2837C53.4705 30.2837 52.9852 30.1267 52.5284 29.8127C52.0859 29.4986 51.8575 28.9419 51.8575 28.1568C51.8575 27.3717 52.0716 26.5866 52.4856 25.8301C50.0589 28.8706 48.1747 30.3837 46.79 30.3837C46.2476 30.3837 45.8051 30.1838 45.4625 29.7984C45.1199 29.413 44.9629 29.0133 44.9629 28.5851C44.9629 28.1711 45.02 27.7429 45.1342 27.3004C45.2484 26.8578 45.3769 26.4582 45.5053 26.1013C45.6338 25.7444 45.8336 25.3162 46.0906 24.8023C46.3475 24.2884 46.5474 23.9173 46.6616 23.6746C46.7758 23.432 46.9899 23.0894 47.2754 22.6183C47.5608 22.1472 47.9177 21.5049 48.3745 20.7055C48.8313 19.9061 49.2024 19.3066 49.5022 18.9212C49.8019 18.5358 50.0874 18.3359 50.3729 18.3359C50.6584 18.3359 50.9011 18.4501 51.1152 18.6785C51.3293 18.9069 51.4435 19.1068 51.4435 19.2495C51.4435 19.3923 51.1152 20.0489 50.4586 21.2194C48.5315 24.7167 47.5609 26.7436 47.5609 27.3289C47.5609 27.4716 47.6179 27.543 47.7179 27.543C48.1889 27.543 49.3595 26.5295 51.2151 24.5025C53.0708 22.4756 54.1557 21.1766 54.4554 20.6056C54.7552 20.0346 55.0264 19.5493 55.3119 19.1639C55.5831 18.7785 55.7973 18.5358 55.94 18.4501C56.354 18.1789 56.8964 18.0362 57.5673 18.0076C57.6815 18.0076 57.7529 18.0076 57.81 18.0219C57.8671 18.0362 57.9384 18.1218 58.0098 18.2646C58.0812 18.4073 58.124 18.5358 58.124 18.6357C58.0384 18.9069 57.6529 19.6349 56.9535 20.8197C56.2683 22.0045 55.8829 22.6754 55.8115 22.8181C54.6553 25.202 54.0843 26.7579 54.0843 27.4716C54.0843 27.8856 54.2413 28.0855 54.5554 28.0855C55.1264 28.0141 55.8115 27.5573 56.6109 26.7294C56.9107 26.4296 57.1962 26.1156 57.4817 25.8015C57.7672 25.4875 57.9527 25.3019 58.0098 25.2591C58.0812 25.1877 58.1668 25.1592 58.2668 25.1592Z" fill="#292F36"/>
<path d="M62.5059 21.7761C64.8041 19.1639 66.774 17.8506 68.387 17.8506C68.7867 17.8506 69.115 17.9648 69.372 18.2075C69.6289 18.4502 69.7574 18.7499 69.7574 19.1353C69.7574 19.5207 69.4862 20.1488 68.9437 21.0481C68.4013 21.9331 67.9017 22.6897 67.4449 23.3035C67.2022 23.6175 66.931 23.7746 66.617 23.7746C66.3172 23.7746 66.0745 23.6604 65.9032 23.432C65.732 23.2036 65.6463 22.9466 65.6463 22.6469C65.6463 21.976 66.0032 21.2051 66.7312 20.3629L66.7026 20.3344C66.3743 20.3629 65.5892 21.0053 64.3045 22.2329C63.0341 23.4748 61.9492 24.5882 61.0499 25.5589C60.1649 26.5438 59.1942 27.7286 58.1379 29.1418C57.8381 29.5557 57.5812 29.7699 57.3671 29.7699C57.153 29.7699 56.8817 29.6985 56.5392 29.57C56.1966 29.4415 55.9824 29.3416 55.9111 29.2845C55.8397 29.2274 55.7969 29.1275 55.7969 28.9848C55.7969 28.8563 55.8397 28.685 55.9111 28.5137C55.9824 28.3281 56.1395 28.0712 56.3393 27.7429C56.5392 27.4146 56.8675 26.8721 57.2957 26.1299C57.7239 25.3876 58.3806 24.2599 59.2799 22.7611C60.1792 21.2622 60.7073 20.3487 60.8929 20.0346C61.264 19.3923 61.5638 18.9212 61.8065 18.6357C62.249 18.079 62.9912 17.8078 64.0333 17.8078C64.2617 17.8078 64.3902 17.9505 64.3902 18.2503C64.3902 18.7071 63.9619 19.5778 63.1197 20.834L62.5059 21.7761Z" fill="#292F36"/>
<path d="M78.2513 18.807C78.2513 19.4493 77.9943 20.0203 77.4662 20.5056C76.938 20.991 76.3528 21.2336 75.6819 21.2336C75.4678 21.2336 75.325 21.1765 75.2536 21.0766C75.1823 20.9767 75.1537 20.8339 75.1537 20.6769C75.1537 20.5199 75.168 20.3486 75.2108 20.1916C74.8539 20.3058 74.4685 20.4914 74.0403 20.734C73.6121 20.9767 73.0839 21.3336 72.4558 21.8189C71.8277 22.3042 71.5137 22.6468 71.5137 22.8895C71.5137 22.9609 71.6279 23.0037 71.8563 23.0037C72.0847 23.0037 72.4415 22.918 72.9126 22.761C73.3837 22.604 73.7263 22.5183 73.9118 22.5183C74.0974 22.5183 74.2259 22.5326 74.283 22.5469C74.4114 22.6183 74.5399 22.761 74.6969 22.9894C74.8397 23.2178 74.911 23.4034 74.911 23.5318C74.911 23.6603 74.7826 23.8316 74.5256 24.0457C74.2687 24.2598 73.9832 24.4169 73.6692 24.531C73.3408 24.6452 73.1267 24.7309 73.0268 24.788C70.9713 25.9442 69.9435 26.7293 69.9435 27.1576C69.9435 27.9141 70.5859 28.2995 71.8848 28.2995C72.7128 28.2995 73.555 28.0426 74.3829 27.5144C75.0966 27.0719 75.739 26.6151 76.31 26.1441C76.8809 25.6873 77.2378 25.4018 77.3948 25.2876C77.5518 25.1734 77.666 25.1306 77.7374 25.1306C77.9944 25.1306 78.1228 25.4161 78.1228 25.9871C78.1228 26.558 78.0943 26.9292 78.0229 27.1005C77.9515 27.286 77.7659 27.5002 77.4376 27.7714C75.3536 29.47 73.3694 30.3265 71.5137 30.3265C70.5145 30.3265 69.7294 30.1838 69.1298 29.9125C68.0307 29.4129 67.4883 28.6564 67.4883 27.6286C67.4883 26.2868 68.4161 25.259 70.2861 24.5739C69.915 24.4026 69.6723 24.2027 69.5724 23.9315C69.4582 23.6746 69.4154 23.2606 69.4154 22.6896C69.4154 22.1186 69.6866 21.5191 70.2147 20.8768C70.7429 20.2344 71.3995 19.7063 72.1703 19.3066C73.8833 18.3787 75.4249 17.9219 76.7667 17.9219C77.095 17.9219 77.4091 17.9933 77.7517 18.1503C78.0943 18.3073 78.2513 18.5215 78.2513 18.807Z" fill="#292F36"/>
<path d="M111.569 8.87192H111.754C111.811 8.87192 111.854 8.87192 111.869 8.88619C111.883 8.90046 111.897 8.90047 111.926 8.91474C111.954 8.91474 111.968 8.92901 111.997 8.95756C112.04 9.00039 112.111 9.04321 112.197 9.08603C112.311 9.17168 112.368 9.2716 112.368 9.3858C112.368 9.5 112.254 9.74266 112.026 10.1138C111.797 10.4849 111.212 11.3842 110.255 12.8402C108.071 16.1805 106.116 19.2923 104.389 22.1472C101.405 27.1148 99.8922 29.6128 99.8636 29.6414C99.8351 29.6699 99.8208 29.6985 99.8065 29.727C99.7923 29.7841 99.7637 29.8127 99.6923 29.8127L99.4925 29.7698L99.0928 29.8698L98.8644 29.8269L98.6217 29.8698H98.5361L97.7225 29.984C97.2371 29.984 96.9944 29.8127 96.9944 29.4843C96.9944 29.3416 97.0373 29.1703 97.1229 28.9705C97.4227 28.2567 98.9501 25.673 101.691 21.1908C99.8922 21.2337 98.1079 21.2622 96.3521 21.2622L93.2117 21.2479C92.6978 22.0759 91.9841 23.2464 91.0848 24.7737C89.1434 28.0997 88.1157 29.7698 87.9872 29.7984C87.8587 29.8269 87.7588 29.8555 87.6732 29.8555C87.5875 29.8555 87.5162 29.8127 87.4591 29.7127C87.3877 29.6271 87.3449 29.57 87.3163 29.57C87.2878 29.57 87.2449 29.5843 87.1593 29.6271C87.0879 29.6699 86.9737 29.6842 86.8167 29.6842L86.4741 29.6699L86.3457 29.5843C86.3314 29.5843 86.3171 29.5985 86.3028 29.6271C86.2886 29.6556 86.2457 29.6699 86.1886 29.6699C85.7747 29.6699 85.5605 29.4986 85.5605 29.1418C85.5605 28.9134 85.6462 28.5993 85.8032 28.2139C85.9745 27.8285 86.1886 27.4145 86.4598 26.972C86.7311 26.5295 87.4162 25.4589 88.5439 23.7888C89.6573 22.1187 90.214 21.2765 90.214 21.2622C90.0285 21.2479 89.8144 21.2479 89.5717 21.2337C89.0721 21.2337 88.7295 21.2194 88.5154 21.1766C87.9587 21.0766 87.5733 20.6199 87.3734 19.8062C87.2592 19.4065 87.2164 19.1496 87.2307 19.0211C87.2307 18.7642 87.3449 18.6214 87.5733 18.6214L87.9587 18.7213C88.1585 18.7356 88.6153 18.7499 89.3576 18.7927C90.0999 18.8355 90.628 18.8498 90.9563 18.8498L91.7842 18.8213C93.0547 16.8371 94.5678 14.5817 96.3378 12.0694C95.0531 13.1257 93.6257 13.6539 92.0555 13.6539C91.3132 13.6539 90.6708 13.4826 90.1427 13.1257C89.6002 12.7689 89.3433 12.3121 89.3433 11.7696C89.3433 11.2272 89.5431 10.799 89.9571 10.4707C90.3711 10.1566 90.7565 9.9996 91.1276 9.9996C91.4987 9.9996 91.6843 10.0567 91.6843 10.1709C91.6843 10.2137 91.6272 10.2565 91.5273 10.2994C91.4274 10.3565 91.3703 10.3993 91.3703 10.4421C91.3703 10.5991 91.5416 10.7419 91.8842 10.8561C92.2267 10.9703 92.6122 11.0416 93.0404 11.0416C93.4686 11.0416 93.9825 10.9132 94.6106 10.6705C95.2387 10.4278 95.881 10.0995 96.5519 9.71411C97.4941 9.17168 98.2363 8.71489 98.7788 8.35803C99.0928 8.20101 99.3783 8.12964 99.6638 8.12964C99.9493 8.12964 100.135 8.15819 100.263 8.22956C100.392 8.28666 100.477 8.35803 100.535 8.41513C100.592 8.47223 100.663 8.55788 100.72 8.6578C100.791 8.75772 100.849 8.84337 100.92 8.88619C100.977 8.94329 101.02 9.00039 101.02 9.07176C101.02 9.14313 100.977 9.24305 100.906 9.40007C100.834 9.54282 100.463 10.1423 99.7923 11.1844C99.1214 12.2264 98.2506 13.554 97.1943 15.167C96.138 16.78 95.3672 17.9648 94.8818 18.7356C97.4941 18.7356 100.306 18.6928 103.332 18.5929C107.015 12.7831 108.957 9.74266 109.156 9.45717C109.356 9.17168 109.542 8.98611 109.713 8.90046C109.884 8.81482 110.084 8.77199 110.327 8.77199L111.569 8.87192Z" fill="#292F36"/>
<path d="M116.336 18.6071C116.636 18.6071 116.936 18.7356 117.235 19.0068C117.549 19.278 117.692 19.6777 117.692 20.2202C117.692 20.7626 117.507 21.462 117.121 22.3328C116.736 23.1893 116.222 24.0743 115.551 24.9736C114.894 25.8586 114.152 26.7008 113.367 27.4859C112.568 28.271 111.711 28.9133 110.797 29.413C109.87 29.9126 109.042 30.1695 108.285 30.1695C107.529 30.1695 106.929 29.9268 106.472 29.4558C106.015 28.9847 105.787 28.3281 105.787 27.4859C105.787 26.6437 106.001 25.7016 106.415 24.6881C106.829 23.6603 107.357 22.761 108.014 21.9759C108.671 21.1908 109.37 20.4914 110.141 19.8633C111.725 18.5786 113.124 17.9505 114.323 17.9505C114.866 17.9505 115.265 18.079 115.537 18.3502C115.637 18.4358 115.679 18.5215 115.679 18.5786V18.6642C115.836 18.6071 116.05 18.6071 116.336 18.6071ZM114.866 20.5485H114.766C114.423 20.5485 114.252 20.3058 114.252 19.8062C113.538 20.0346 112.796 20.4485 112.011 21.0338C111.226 21.6191 110.526 22.3185 109.912 23.1179C108.656 24.7166 108.028 26.0727 108.014 27.1719C108.014 27.7143 108.214 27.9855 108.613 27.9855C109.013 27.9855 109.613 27.7143 110.398 27.2004C111.183 26.6865 111.968 25.93 112.753 24.945C113.524 23.9744 114.109 23.1179 114.495 22.4042C114.88 21.6904 115.08 21.2051 115.08 20.9339C115.066 20.6769 114.994 20.5485 114.866 20.5485Z" fill="#292F36"/>
<path d="M117.377 29.8412L116.664 29.8126H116.407C116.307 29.7841 116.207 29.727 116.093 29.6413C115.978 29.5557 115.893 29.4843 115.836 29.4557C115.779 29.4272 115.75 29.3415 115.75 29.2416C115.75 29.1417 115.793 28.9561 115.864 28.7135C117.763 24.531 119.604 21.1765 121.388 18.6785C121.588 18.4073 121.902 18.1931 122.331 18.0504C122.759 17.9076 123.187 17.8363 123.601 17.8363C123.844 17.8363 123.972 18.0218 123.972 18.4073C123.972 18.5214 123.929 18.6642 123.858 18.8355C123.787 19.0211 123.587 19.3065 123.273 19.7205C122.959 20.1345 122.588 20.6055 122.159 21.1194C121.731 21.6333 121.488 21.9473 121.431 22.033C122.773 20.6484 123.972 19.6206 125.057 18.9354C126.142 18.2645 126.913 17.9219 127.398 17.9219C127.883 17.9219 128.254 18.0647 128.511 18.3359C128.768 18.6071 128.897 18.9069 128.897 19.2209C128.897 19.5349 128.868 19.8062 128.825 20.006C128.783 20.2201 128.697 20.4342 128.583 20.6626C128.469 20.891 128.369 21.0909 128.283 21.2479C128.197 21.4049 128.055 21.619 127.869 21.876C127.669 22.1329 127.541 22.3185 127.469 22.4184C127.398 22.5183 127.241 22.7039 127.013 22.9751C126.784 23.2463 126.656 23.4033 126.641 23.4319C126.913 23.1607 127.298 22.761 127.783 22.2186C128.269 21.6761 128.683 21.2336 129.025 20.8768C129.368 20.5199 129.782 20.1059 130.296 19.6491C130.81 19.1924 131.281 18.8212 131.709 18.55C132.765 17.8934 133.836 17.5508 134.921 17.5508C135.292 17.5508 135.606 17.665 135.863 17.9076C136.12 18.1503 136.248 18.4215 136.248 18.7498C136.248 19.0782 135.849 19.8633 135.063 21.0909C134.278 22.3185 133.479 23.5604 132.694 24.8022C131.909 26.0441 131.509 26.8292 131.509 27.1575C131.509 27.6001 131.595 27.8713 131.752 27.9569C131.923 28.0426 132.123 28.0711 132.351 28.0568C132.58 28.0426 132.922 27.8855 133.336 27.6001C133.764 27.3146 134.136 27.0291 134.464 26.715C135.006 26.2297 135.492 25.7586 135.963 25.3019C136.063 25.2162 136.163 25.1734 136.291 25.1734C136.477 25.1734 136.591 25.3161 136.634 25.6016C136.676 25.8871 136.691 26.1726 136.691 26.4866C136.691 26.8007 136.662 27.0005 136.605 27.1147C136.32 27.6572 135.692 28.3281 134.735 29.1274C133.764 29.9125 132.837 30.3122 131.952 30.3122C131.837 30.3122 131.766 30.3122 131.723 30.2979C130.724 30.198 130.025 29.9268 129.639 29.47C129.254 29.0132 129.068 28.4708 129.068 27.857C129.068 27.2432 129.282 26.4724 129.71 25.5873C130.139 24.7023 130.596 23.8887 131.109 23.1749C131.623 22.4612 132.08 21.8046 132.508 21.2193C132.937 20.6341 133.151 20.32 133.151 20.2772C133.151 20.2344 133.108 20.2058 133.036 20.2058C132.737 20.2058 132.066 20.6912 131.009 21.6761C129.225 23.3462 127.684 24.9593 126.385 26.5009C126.042 26.9149 125.228 27.9426 123.958 29.6128C123.815 29.8126 123.572 29.9125 123.258 29.9125C122.944 29.9125 122.616 29.8554 122.273 29.727C121.931 29.5985 121.76 29.4415 121.76 29.2559C121.76 29.156 122.53 27.7856 124.086 25.1448C125.642 22.504 126.413 21.0623 126.413 20.8339C126.413 20.5913 126.27 20.4771 125.985 20.4771C125.699 20.4771 125.1 20.9053 124.201 21.7618C121.731 24.1171 119.818 26.4724 118.462 28.7991C118.377 28.9419 118.205 29.156 117.948 29.4415C117.691 29.727 117.463 29.8412 117.377 29.8412Z" fill="#292F36"/>
<path d="M145.685 18.807C145.685 19.4493 145.428 20.0203 144.9 20.5056C144.372 20.991 143.786 21.2336 143.115 21.2336C142.901 21.2336 142.759 21.1765 142.687 21.0766C142.616 20.9767 142.587 20.8339 142.587 20.6769C142.587 20.5199 142.602 20.3486 142.644 20.1916C142.288 20.3058 141.902 20.4914 141.474 20.734C141.046 20.9767 140.517 21.3336 139.889 21.8189C139.261 22.3042 138.947 22.6468 138.947 22.8895C138.947 22.9609 139.061 23.0037 139.29 23.0037C139.518 23.0037 139.875 22.918 140.346 22.761C140.817 22.604 141.16 22.5183 141.345 22.5183C141.531 22.5183 141.659 22.5326 141.717 22.5469C141.845 22.6183 141.973 22.761 142.131 22.9894C142.273 23.2178 142.345 23.4034 142.345 23.5318C142.345 23.6603 142.216 23.8316 141.959 24.0457C141.702 24.2598 141.417 24.4169 141.103 24.531C140.774 24.6452 140.56 24.7309 140.46 24.788C138.405 25.9442 137.377 26.7293 137.377 27.1576C137.377 27.9141 138.019 28.2995 139.318 28.2995C140.146 28.2995 140.989 28.0426 141.816 27.5144C142.53 27.0719 143.173 26.6151 143.744 26.1441C144.315 25.6873 144.671 25.4018 144.828 25.2876C144.985 25.1734 145.1 25.1306 145.171 25.1306C145.428 25.1306 145.556 25.4161 145.556 25.9871C145.556 26.558 145.528 26.9292 145.456 27.1005C145.385 27.286 145.2 27.5002 144.871 27.7714C142.787 29.47 140.803 30.3265 138.947 30.3265C137.948 30.3265 137.163 30.1838 136.563 29.9125C135.464 29.4129 134.922 28.6564 134.922 27.6286C134.922 26.2868 135.85 25.259 137.72 24.5739C137.349 24.4026 137.106 24.2027 137.006 23.9315C136.892 23.6746 136.849 23.2606 136.849 22.6896C136.849 22.1186 137.12 21.5191 137.648 20.8768C138.176 20.2344 138.833 19.7063 139.604 19.3066C141.317 18.3787 142.859 17.9219 144.2 17.9219C144.529 17.9219 144.843 17.9933 145.185 18.1503C145.528 18.3073 145.685 18.5215 145.685 18.807Z" fill="#292F36"/>
<path d="M0.982422 33.7952C4.73662 35.3654 8.56219 36.5787 12.4591 37.5066C16.3275 38.4772 20.2673 39.1624 24.2071 39.5906C26.177 39.8618 28.1611 39.8904 30.1168 40.076C32.1009 40.0902 34.0708 40.2473 36.0407 40.1331L38.9955 40.0617C39.9805 40.0474 40.9654 39.919 41.9503 39.8619C42.9353 39.7762 43.9202 39.7334 44.8909 39.6049L47.8172 39.1909C51.7427 38.7627 55.554 37.8491 59.351 36.75C63.1908 35.6937 66.8166 34.2948 70.6564 32.8388C74.5819 31.397 78.8357 30.4549 83.1466 30.9117C85.2736 31.1829 87.4147 31.8681 89.1562 33.1243C90.912 34.3662 92.1682 36.1362 92.9675 37.9919C91.7685 36.336 90.2696 34.98 88.5424 34.1378C86.8152 33.2956 84.9167 32.953 83.0324 33.0101C79.2211 33.0672 75.4669 34.3376 71.9411 35.9364C68.3582 37.7064 64.4755 39.3051 60.5643 40.6327C56.6245 41.9031 52.5563 42.9166 48.431 43.4305C40.2231 44.5154 31.8154 44.5296 23.7075 42.8881C19.6392 42.1458 15.6709 40.9895 11.8311 39.5193C8.01975 37.9919 4.29411 36.2076 0.982422 33.7952Z" fill="#292F36"/>
<path d="M137.489 10.0281C134.306 8.67204 131.066 7.61572 127.782 6.7878C124.514 5.91705 121.202 5.30325 117.876 4.87502C116.22 4.61807 114.536 4.56098 112.88 4.36113C111.21 4.31831 109.554 4.14701 107.884 4.21839C107.056 4.23266 106.214 4.23266 105.386 4.21839C104.558 4.21839 103.716 4.30403 102.888 4.33258C102.06 4.38968 101.218 4.40396 100.39 4.4896L97.9059 4.78937C94.5799 5.06058 91.3539 5.74576 88.1278 6.58796C84.8589 7.37306 81.7614 8.48647 78.4639 9.59989C75.0809 10.7276 71.4123 11.4128 67.7295 10.8989C65.9166 10.5991 64.0895 9.95675 62.6478 8.81479C61.1775 7.6871 60.1783 6.14545 59.5645 4.53242C60.5779 5.9456 61.8341 7.10184 63.2758 7.81557C64.7176 8.5293 66.302 8.82906 67.8865 8.81479C71.084 8.81479 74.2529 7.78702 77.2506 6.50231C80.3054 5.04631 83.6599 3.7616 87.0001 2.70529C90.3689 1.69179 93.8804 0.920968 97.392 0.549831C104.401 -0.192445 111.567 -0.0211512 118.433 1.60615C121.873 2.33415 125.227 3.44756 128.439 4.81792C131.665 6.21682 134.777 7.84412 137.489 10.0281Z" fill="#292F36"/>
</svg>
