<svg width="118" height="48" viewBox="0 0 118 48" fill="none" xmlns="http://www.w3.org/2000/svg">
<path d="M0.683594 29.7841V0.57843H17.8844V29.7699H0.683594V29.7841ZM15.8004 22.9894L16.2429 19.7634L14.6441 19.6064L14.1588 22.0902C13.1595 22.5898 11.9319 22.8324 10.4617 22.8324C8.46322 22.8324 6.87874 22.2044 5.7225 20.9339C4.55199 19.6635 3.98101 17.9934 3.98101 15.9093C3.98101 13.8823 4.55199 12.2122 5.67968 10.8989C6.80737 9.58566 8.29196 8.92903 10.1334 8.92903C11.0755 8.92903 11.8748 9.04323 12.5172 9.25735C13.1596 9.47147 13.7448 9.75696 14.3015 10.1281L14.7726 12.5833L16.3999 12.4263L15.9288 9.20025C15.2437 8.615 14.43 8.14394 13.4879 7.7728C12.5457 7.41593 11.3752 7.23036 9.99062 7.23036C8.34905 7.23036 6.93587 7.63005 5.75108 8.4437C4.56629 9.25735 3.63845 10.3279 2.98182 11.6555C2.32519 12.9973 1.99687 14.439 1.99687 15.9807C1.99687 18.4216 2.75342 20.4629 4.26652 22.0902C5.77962 23.7175 7.74949 24.5311 10.1904 24.5311C12.5886 24.5311 14.4586 24.0172 15.8004 22.9894Z" fill="#292F36"/>
<path d="M23.7227 29.7841V0.57843H31.1169V29.7699H23.7227V29.7841ZM24.5077 24.2742H30.346V22.8039H28.3333V6.50236H24.4792V7.97264H26.5205V22.8039H24.5077V24.2742Z" fill="#292F36"/>
<path d="M36.9551 29.7841V0.57843H49.9449V29.7699H36.9551V29.7841ZM39.3104 13.6539L38.8964 16.309L40.3952 16.4945L40.8378 14.5104C41.4801 14.1963 42.2081 14.0393 43.0646 14.0393C44.0923 14.0393 44.7918 14.2963 45.1487 14.8101C45.5056 15.324 45.6768 15.9949 45.6768 16.8229V17.8506C45.3628 17.8221 45.0345 17.7935 44.6776 17.7792C44.3207 17.765 43.9782 17.7507 43.6356 17.7507C42.3509 17.7507 41.1232 17.9791 39.9813 18.4359C38.8393 18.8927 38.2684 19.8491 38.2684 21.2908C38.2684 22.5184 38.6538 23.3606 39.4389 23.8174C40.224 24.2884 40.9948 24.5168 41.7513 24.5168C42.6792 24.5168 43.4785 24.2742 44.1352 23.7888C44.7918 23.3035 45.3057 22.7611 45.6768 22.133V22.1901C45.7054 23.746 46.4048 24.5168 47.7752 24.5168C48.3034 24.5168 48.8029 24.3884 49.274 24.1314L49.2455 22.9466C49.0171 23.0465 48.7601 23.1036 48.4746 23.1036C47.818 23.1036 47.4897 22.6897 47.4897 21.8618V16.3946C47.4897 13.8252 46.1193 12.5405 43.3786 12.5405C42.6221 12.5405 41.9083 12.6261 41.2374 12.7974C40.5523 12.983 39.9099 13.2685 39.3104 13.6539ZM45.6626 19.9632C45.5912 20.9054 45.2058 21.6619 44.5063 22.2043C43.8069 22.7611 43.0646 23.0323 42.2652 23.0323C41.7656 23.0323 41.2803 22.8895 40.8235 22.6183C40.3524 22.3471 40.124 21.8332 40.124 21.0909C40.124 20.1916 40.4809 19.6207 41.1661 19.3494C41.8655 19.0782 42.6363 18.9498 43.5071 18.9498C43.8925 18.9498 44.2636 18.964 44.6205 19.0069C44.9774 19.0354 45.3342 19.064 45.6483 19.0782V19.9632H45.6626Z" fill="#292F36"/>
<path d="M55.7969 29.7841V0.57843H67.6019V29.7699H55.7969V29.7841ZM66.36 20.9482C66.36 20.0346 66.1173 19.3637 65.632 18.9212C65.1467 18.4787 64.5614 18.1789 63.8477 18.0076C63.134 17.8363 62.4345 17.6936 61.7351 17.5794C61.0356 17.4652 60.4361 17.2796 59.9508 17.037C59.4654 16.7943 59.2228 16.3661 59.2228 15.7523C59.2228 15.167 59.4511 14.7388 59.9222 14.4533C60.3933 14.1678 60.9785 14.0393 61.7065 14.0393C62.5487 14.0393 63.3338 14.2249 64.0618 14.6103L64.3474 16.466L65.8462 16.2804L65.5607 13.5968C65.0753 13.297 64.4901 13.0544 63.7906 12.8545C63.0912 12.6547 62.3489 12.5405 61.5495 12.5405C60.4932 12.5405 59.5225 12.7974 58.6232 13.297C57.724 13.7966 57.2814 14.6531 57.2814 15.8807C57.2814 16.78 57.5241 17.4367 58.0094 17.8506C58.4947 18.2789 59.0943 18.5643 59.8223 18.7356C60.5503 18.9069 61.264 19.0497 61.9777 19.1782C62.6915 19.2923 63.291 19.4922 63.7763 19.7491C64.2617 20.0061 64.5043 20.4486 64.5043 21.0909C64.5043 21.7476 64.1903 22.2329 63.5622 22.5469C62.9341 22.861 62.2204 23.018 61.4068 23.018C60.4932 23.018 59.6367 22.8324 58.8516 22.447L58.923 20.9196L57.4813 20.7626L57.1244 23.3749C57.624 23.7032 58.2806 23.9744 59.08 24.1885C59.8794 24.4026 60.6788 24.5168 61.4924 24.5168C62.877 24.5168 64.0333 24.2028 64.9611 23.5604C65.889 22.9466 66.36 22.0616 66.36 20.9482Z" fill="#292F36"/>
<path d="M73.4414 29.7841V0.57843H85.2464V29.7699H73.4414V29.7841ZM84.0045 20.9482C84.0045 20.0346 83.7618 19.3637 83.2765 18.9212C82.7912 18.4787 82.2059 18.1789 81.4922 18.0076C80.7785 17.8363 80.079 17.6936 79.3796 17.5794C78.6801 17.4652 78.0806 17.2796 77.5953 17.037C77.1099 16.7943 76.8672 16.3661 76.8672 15.7523C76.8672 15.167 77.0956 14.7388 77.5667 14.4533C78.0377 14.1678 78.623 14.0393 79.351 14.0393C80.1932 14.0393 80.9783 14.2249 81.7063 14.6103L81.9918 16.466L83.4906 16.2804L83.2051 13.5968C82.7198 13.297 82.1346 13.0544 81.4351 12.8545C80.7357 12.6547 79.9934 12.5405 79.194 12.5405C78.1377 12.5405 77.167 12.7974 76.2677 13.297C75.3684 13.7966 74.9259 14.6531 74.9259 15.8807C74.9259 16.78 75.1686 17.4367 75.6539 17.8506C76.1393 18.2789 76.7388 18.5643 77.4668 18.7356C78.1948 18.9069 78.9085 19.0497 79.6222 19.1782C80.3359 19.2923 80.9355 19.4922 81.4208 19.7491C81.9062 20.0061 82.1488 20.4486 82.1488 21.0909C82.1488 21.7476 81.8348 22.2329 81.2068 22.5469C80.5787 22.861 79.8649 23.018 79.0513 23.018C78.1377 23.018 77.2812 22.8324 76.4961 22.447L76.5675 20.9196L75.1258 20.7626L74.7689 23.3749C75.2685 23.7032 75.9252 23.9744 76.7245 24.1885C77.5239 24.4026 78.3233 24.5168 79.1369 24.5168C80.5216 24.5168 81.6778 24.2028 82.6056 23.5604C83.5335 22.9466 84.0045 22.0616 84.0045 20.9482Z" fill="#292F36"/>
<path d="M91.084 29.7841V0.57843H98.8636V29.7699H91.084V29.7841ZM92.2259 24.2742H98.0643V22.8039H96.0515V12.7832H92.1832V14.2534H94.2529V22.8039H92.2402V24.2742H92.2259ZM94.0531 7.45876V9.81406H96.023V7.45876H94.0531Z" fill="#292F36"/>
<path d="M104.703 29.7841V0.57843H117.136V29.7699H104.703V29.7841ZM116.023 20.4058L114.467 20.0632C114.124 22.0045 113.082 22.9752 111.369 22.9752C110.227 22.9752 109.357 22.5898 108.757 21.8189C108.158 21.0481 107.858 19.9632 107.858 18.5929C107.858 17.351 108.129 16.2947 108.657 15.4097C109.185 14.5247 110.07 14.0964 111.298 14.0964C112.24 14.0964 113.068 14.3105 113.753 14.7388L114.196 16.6801L115.695 16.4945L115.252 13.7253C114.667 13.2828 114.053 12.9687 113.411 12.7974C112.768 12.6261 112.069 12.5405 111.312 12.5405C109.528 12.5405 108.172 13.1686 107.287 14.4247C106.388 15.6809 105.945 17.1083 105.945 18.6928C105.945 20.5342 106.416 21.976 107.372 22.9894C108.315 24.0172 109.585 24.5311 111.17 24.5311C112.754 24.5311 113.925 24.0886 114.667 23.2178C115.409 22.3328 115.866 21.405 116.023 20.4058Z" fill="#292F36"/>
<path d="M8.12067 45.7287C7.79236 46.3283 7.30701 46.7993 6.67893 47.1276C6.03658 47.456 5.28002 47.6273 4.395 47.6273H1.83984V39.5764H4.395C5.28002 39.5764 6.05085 39.7334 6.67893 40.0618C7.30701 40.3901 7.79236 40.8468 8.12067 41.4607C8.44899 42.0745 8.606 42.7739 8.606 43.6018C8.606 44.4155 8.44899 45.1292 8.12067 45.7287ZM6.70747 45.8858C7.26417 45.3433 7.53541 44.5868 7.53541 43.6018C7.53541 42.6169 7.26417 41.8603 6.70747 41.3179C6.15076 40.7755 5.35138 40.5043 4.29507 40.5043H2.85337V46.6994H4.29507C5.35138 46.6994 6.15076 46.4282 6.70747 45.8858Z" fill="#292F36"/>
<path d="M13.9014 40.4186V43.1736H16.9562V43.973H13.9014V46.7851H17.2988V47.6273H12.8594V39.5764H17.2988V40.4186H13.9014Z" fill="#292F36"/>
<path d="M26.32 46.5996C26.1344 46.9279 25.8632 47.1991 25.4921 47.3989C25.1209 47.5988 24.6641 47.713 24.1074 47.713C23.5793 47.713 23.0939 47.6131 22.68 47.4275C22.266 47.2276 21.9377 46.9707 21.6808 46.6281C21.4381 46.2855 21.2953 45.9001 21.2525 45.4719H22.3659C22.3945 45.7003 22.4659 45.9287 22.5943 46.1428C22.7228 46.3569 22.9226 46.5425 23.1653 46.6852C23.408 46.828 23.7077 46.8993 24.0646 46.8993C24.5214 46.8993 24.8783 46.7851 25.121 46.5282C25.3636 46.2712 25.4921 45.9715 25.4921 45.5861C25.4921 45.2578 25.4064 44.9865 25.2351 44.7867C25.0638 44.5869 24.8497 44.4156 24.6071 44.3014C24.3644 44.1872 24.0075 44.0587 23.5793 43.916C23.0654 43.7447 22.6657 43.5876 22.3517 43.4449C22.0377 43.3021 21.7807 43.0738 21.5666 42.774C21.3524 42.4742 21.2383 42.0888 21.2383 41.6035C21.2383 41.1895 21.3382 40.8184 21.538 40.4901C21.7379 40.176 22.0233 39.9191 22.4088 39.7478C22.7799 39.5765 23.2367 39.4908 23.7363 39.4908C24.5214 39.4908 25.1637 39.6764 25.6205 40.0618C26.0916 40.4472 26.3485 40.9326 26.4342 41.5321H25.3208C25.2637 41.2181 25.0924 40.9326 24.8354 40.6899C24.5642 40.4472 24.2074 40.3188 23.7506 40.3188C23.3366 40.3188 22.994 40.433 22.7514 40.6471C22.4944 40.8612 22.3802 41.1752 22.3802 41.5607C22.3802 41.8747 22.4659 42.1316 22.6229 42.3172C22.7942 42.517 22.994 42.6598 23.2367 42.774C23.4794 42.8882 23.8219 43.0024 24.2359 43.1451C24.7498 43.3164 25.1638 43.4734 25.4921 43.6305C25.8061 43.7875 26.0773 44.0159 26.2914 44.3156C26.5056 44.6154 26.6198 45.0294 26.6198 45.5433C26.5912 45.9144 26.5056 46.2712 26.32 46.5996Z" fill="#292F36"/>
<path d="M31.8878 39.5764V47.6273H30.8457V39.5764H31.8878Z" fill="#292F36"/>
<path d="M42.4233 40.1903C43.0656 40.6614 43.4938 41.2895 43.708 42.0888H42.6088C42.4233 41.6035 42.0949 41.2038 41.6524 40.9183C41.2099 40.6186 40.6818 40.4758 40.068 40.4758C39.5255 40.4758 39.0259 40.6043 38.5977 40.8612C38.1694 41.1182 37.8269 41.475 37.5699 41.9461C37.3273 42.4172 37.1988 42.9739 37.1988 43.6162C37.1988 44.2728 37.3273 44.8438 37.5699 45.3149C37.8126 45.7859 38.1694 46.1571 38.6119 46.414C39.0545 46.671 39.5684 46.7994 40.1536 46.7994C40.6532 46.7994 41.0957 46.6852 41.5097 46.4854C41.9236 46.2713 42.2519 45.9572 42.5232 45.5576C42.7944 45.1579 42.9371 44.6725 42.9942 44.1301H39.8253V43.3593H43.865V44.3157C43.7936 44.958 43.5938 45.529 43.2655 46.0572C42.9371 46.5853 42.4946 46.985 41.9379 47.2848C41.3812 47.5845 40.7531 47.7416 40.0394 47.7416C39.2686 47.7416 38.5834 47.5703 37.9839 47.2277C37.3843 46.8851 36.9275 46.3998 36.5992 45.7717C36.2709 45.1579 36.0996 44.4441 36.0996 43.6448C36.0996 42.8454 36.2709 42.1317 36.5992 41.5179C36.9275 40.9041 37.3986 40.4044 37.9839 40.0619C38.5691 39.7193 39.2543 39.5337 40.0251 39.5337C40.9958 39.5051 41.7809 39.7335 42.4233 40.1903Z" fill="#292F36"/>
<path d="M54.3993 47.6273H53.3573L49.1748 41.2608V47.6273H48.1328V39.5764H49.1748L53.3573 45.9429V39.5764H54.3993V47.6273Z" fill="#292F36"/>
<path d="M69.4157 46.5996C69.2301 46.9279 68.9589 47.1991 68.5878 47.3989C68.2166 47.5988 67.7599 47.713 67.2032 47.713C66.675 47.713 66.1897 47.6131 65.7757 47.4275C65.3618 47.2276 65.0334 46.9707 64.7765 46.6281C64.5338 46.2855 64.3911 45.9001 64.3483 45.4719H65.4616C65.4902 45.7003 65.5616 45.9287 65.6901 46.1428C65.8186 46.3569 66.0183 46.5425 66.261 46.6852C66.5037 46.828 66.8035 46.8993 67.1603 46.8993C67.6171 46.8993 67.9739 46.7851 68.2166 46.5282C68.4593 46.2712 68.5878 45.9715 68.5878 45.5861C68.5878 45.2578 68.5021 44.9865 68.3308 44.7867C68.1595 44.5869 67.9454 44.4156 67.7028 44.3014C67.4601 44.1872 67.1033 44.0587 66.675 43.916C66.1611 43.7447 65.7614 43.5876 65.4474 43.4449C65.1333 43.3021 64.8764 43.0738 64.6623 42.774C64.4482 42.4742 64.334 42.0888 64.334 41.6035C64.334 41.1895 64.4339 40.8184 64.6337 40.4901C64.8335 40.176 65.1191 39.9191 65.5045 39.7478C65.8756 39.5765 66.3324 39.4908 66.832 39.4908C67.6171 39.4908 68.2595 39.6764 68.7163 40.0618C69.1873 40.4472 69.4443 40.9326 69.5299 41.5321H68.4165C68.3594 41.2181 68.188 40.9326 67.9311 40.6899C67.6599 40.4472 67.3031 40.3188 66.8463 40.3188C66.4324 40.3188 66.0897 40.433 65.8471 40.6471C65.5901 40.8612 65.4759 41.1752 65.4759 41.5607C65.4759 41.8747 65.5616 42.1316 65.7186 42.3172C65.8899 42.517 66.0897 42.6598 66.3324 42.774C66.575 42.8882 66.9176 43.0024 67.3316 43.1451C67.8455 43.3164 68.2595 43.4734 68.5878 43.6305C68.9018 43.7875 69.173 44.0159 69.3871 44.3156C69.6013 44.6154 69.7154 45.0294 69.7154 45.5433C69.6869 45.9144 69.6013 46.2712 69.4157 46.5996Z" fill="#292F36"/>
<path d="M78.8789 39.5764V40.4186H76.6092V47.6273H75.5529V40.4186H73.2832V39.5764H78.8789Z" fill="#292F36"/>
<path d="M83.7322 39.5764V44.4012C83.7322 45.1863 83.9035 45.7716 84.2603 46.157C84.6172 46.5281 85.0883 46.728 85.7164 46.728C86.3302 46.728 86.8012 46.5424 87.1438 46.157C87.4864 45.7716 87.6577 45.2006 87.6577 44.4155V39.5907H88.6998V44.4155C88.6998 45.5146 88.4286 46.3425 87.8861 46.885C87.3437 47.4417 86.6156 47.7129 85.7021 47.7129C84.8028 47.7129 84.0748 47.4417 83.5324 46.885C82.99 46.3283 82.7188 45.5146 82.7188 44.4155V39.5907H83.7322V39.5764Z" fill="#292F36"/>
<path d="M99.4487 45.7287C99.1204 46.3283 98.635 46.7993 98.007 47.1276C97.3646 47.456 96.6081 47.6273 95.7231 47.6273H93.168V39.5764H95.7231C96.6081 39.5764 97.3789 39.7334 98.007 40.0618C98.635 40.3901 99.1204 40.8468 99.4487 41.4607C99.777 42.0745 99.9341 42.7739 99.9341 43.6018C99.9341 44.4155 99.777 45.1292 99.4487 45.7287ZM98.0498 45.8858C98.6065 45.3433 98.8778 44.5868 98.8778 43.6018C98.8778 42.6169 98.6065 41.8603 98.0498 41.3179C97.4931 40.7755 96.6938 40.5043 95.6374 40.5043H94.1957V46.6994H95.6374C96.6795 46.6994 97.4931 46.4282 98.0498 45.8858Z" fill="#292F36"/>
<path d="M105.245 39.5764V47.6273H104.203V39.5764H105.245Z" fill="#292F36"/>
<path d="M115.465 40.0047C116.065 40.3616 116.536 40.8469 116.879 41.475C117.221 42.1031 117.392 42.8168 117.392 43.6019C117.392 44.387 117.221 45.1007 116.879 45.7288C116.536 46.3569 116.065 46.8422 115.465 47.1991C114.866 47.556 114.195 47.7272 113.453 47.7272C112.71 47.7272 112.025 47.556 111.426 47.1991C110.826 46.8422 110.341 46.3569 109.998 45.7288C109.656 45.1007 109.484 44.387 109.484 43.6019C109.484 42.8168 109.656 42.1031 109.998 41.475C110.341 40.8469 110.812 40.3616 111.426 40.0047C112.039 39.6479 112.71 39.4766 113.453 39.4766C114.195 39.4766 114.866 39.6479 115.465 40.0047ZM111.954 40.8326C111.511 41.0896 111.169 41.4464 110.926 41.9318C110.683 42.4028 110.555 42.9595 110.555 43.6019C110.555 44.23 110.683 44.7867 110.926 45.272C111.169 45.7574 111.511 46.1142 111.954 46.3712C112.396 46.6281 112.882 46.7566 113.438 46.7566C113.981 46.7566 114.48 46.6281 114.923 46.3712C115.365 46.1142 115.708 45.7431 115.951 45.272C116.193 44.801 116.322 44.2443 116.322 43.6162C116.322 42.9738 116.193 42.4171 115.951 41.9461C115.708 41.475 115.365 41.1039 114.923 40.8469C114.48 40.59 113.995 40.4615 113.438 40.4615C112.896 40.4472 112.396 40.5757 111.954 40.8326Z" fill="#292F36"/>
</svg>
